<svg xmlns="http://www.w3.org/2000/svg" xmlns:xlink="http://www.w3.org/1999/xlink" id="Layer_1" width="1780" height="850" viewBox="755 -290 1780 850"><style id="style2">.st0{fill:url(#sky_x2F_space_2_)}.st1{fill:url(#river_2_)}.st2{opacity:.9}.st3{fill:url(#SVGID_1_)}.st4{fill:url(#SVGID_2_)}.st5{opacity:.8}.st6{fill:url(#SVGID_3_)}.st7{fill:#fdd8cd}.st8{fill:url(#SVGID_4_)}.st9{fill:url(#SVGID_5_)}.st10,.st11{opacity:.8;fill:url(#SVGID_6_);enable-background:new}.st11{fill:url(#SVGID_7_)}.st12{fill:#445763}.st13{fill:url(#SVGID_8_)}.st14{fill:url(#SVGID_9_)}.st15,.st16,.st17,.st18{opacity:3e-2;fill:#fff;enable-background:new}.st16,.st17,.st18{opacity:4e-2}.st17,.st18{opacity:6e-2}.st18{opacity:.1}.st19,.st20{fill:#575c7a}.st20{display:none}.st21{opacity:.8;fill:#fff4cf;enable-background:new}.st22{fill:url(#SVGID_10_)}.st23{fill:url(#SVGID_11_)}.st24{fill:url(#SVGID_12_)}.st25{fill:url(#SVGID_13_)}.st26{opacity:5e-2;fill:#fff;enable-background:new}.st27{clip-path:url(#SVGID_15_)}.st28{fill:url(#SVGID_16_)}.st29{fill:url(#SVGID_17_)}.st30{fill:url(#SVGID_18_)}.st31{fill:url(#SVGID_19_)}.st32{fill:url(#SVGID_20_)}.st33{fill:url(#SVGID_21_)}.st34{fill:url(#SVGID_22_)}.st35{fill:url(#SVGID_23_)}.st36{fill:url(#SVGID_24_)}.st37{fill:url(#SVGID_25_)}.st38{fill:url(#SVGID_26_)}.st39{fill:url(#SVGID_27_)}.st40{fill:url(#SVGID_28_)}.st41{fill:url(#SVGID_29_)}.st42{fill:#293942}.st43{fill:url(#SVGID_30_)}.st44{fill:url(#SVGID_31_)}.st45{fill:url(#SVGID_32_)}.st46{fill:url(#SVGID_33_)}.st47{fill:url(#SVGID_34_)}.st48{fill:url(#SVGID_35_)}.st49{fill:url(#SVGID_36_)}.st50{fill:#808184}.st51{fill:url(#SVGID_37_)}.st52{fill:url(#SVGID_38_)}.st53{fill:url(#SVGID_39_)}.st54{fill:url(#SVGID_40_)}.st55{fill:url(#SVGID_41_)}.st56{fill:url(#SVGID_42_)}.st57{fill:url(#SVGID_43_)}.st58{fill:url(#SVGID_44_)}.st59{opacity:.17;fill:#efefef;enable-background:new}.st60{fill:url(#SVGID_45_)}.st61{fill:url(#SVGID_46_)}.st62{fill:url(#SVGID_47_)}.st63{fill:url(#SVGID_48_)}.st64{fill:url(#SVGID_49_)}.st65{fill:url(#SVGID_50_)}.st66{fill:#273d44}.st67{fill:url(#SVGID_51_)}.st68{fill:url(#SVGID_52_)}.st69{fill:url(#SVGID_53_)}.st70{fill:url(#SVGID_54_)}.st71{fill:url(#SVGID_55_)}.st72{fill:url(#SVGID_56_)}.st73{fill:#929497}.st74{fill:url(#SVGID_57_)}.st75{fill:#fff}.st76{fill:url(#SVGID_58_)}.st77{fill:url(#SVGID_59_)}.st78{fill:url(#SVGID_60_)}.st79,.st80{opacity:.6;fill:#4e4d50;enable-background:new}.st80{opacity:.21;fill:#231f20}.st81{fill:url(#SVGID_61_)}.st82{fill:url(#SVGID_62_)}.st83,.st84{opacity:.39;fill:url(#SVGID_63_);enable-background:new}.st84{fill:url(#SVGID_64_)}.st85{fill:url(#SVGID_65_)}.st86{fill:url(#SVGID_66_)}.st87{fill:url(#SVGID_67_)}.st88{fill:url(#SVGID_68_)}.st89{fill:url(#SVGID_69_)}.st90{fill:url(#SVGID_70_)}.st91{fill:url(#SVGID_71_)}.st92,.st93{opacity:.59;fill:url(#SVGID_72_);enable-background:new}.st93{opacity:.45;fill:#bfbebe}.st94{fill:url(#SVGID_73_)}.st95{fill:url(#SVGID_74_)}.st96{fill:url(#SVGID_75_)}.st97{opacity:7e-2;fill:url(#SVGID_76_);enable-background:new}</style><linearGradient id="sky_x2F_space_2_" gradientUnits="userSpaceOnUse" x1="1671.445" y1="377.765" x2="1628.921" y2="1176.912" gradientTransform="matrix(1 0 0 -1 0 904)"><stop offset="0" id="stop4" stop-color="#f3c187"/><stop offset=".053" id="stop6" stop-color="#f4aa8d"/><stop offset=".119" id="stop8" stop-color="#df7d66"/><stop offset=".306" id="stop10" stop-color="#4e5763"/><stop offset=".591" id="stop12" stop-color="#0c3c4c"/><stop offset="1" id="stop14" stop-color="#0e1c22"/></linearGradient><linearGradient id="river_2_" gradientUnits="userSpaceOnUse" x1="1619.423" y1="694.478" x2="1762.788" y2="188.643" gradientTransform="matrix(1 0 0 -1 0 904)"><stop offset=".079" id="stop18" stop-color="#c5817e"/><stop offset=".364" id="stop20" stop-color="#57606d"/><stop offset=".699" id="stop22" stop-color="#33434c"/><stop offset="1" id="stop24" stop-color="#2d3a41"/></linearGradient><linearGradient id="SVGID_8_" gradientUnits="userSpaceOnUse" x1="2253.213" y1="109.996" x2="1988.486" y2="459.662"><stop offset="0" id="stop88" stop-color="#f4b49c"/><stop offset=".365" id="stop90" stop-color="#5a576c"/><stop offset=".995" id="stop92" stop-color="#3d4e59"/></linearGradient><linearGradient id="SVGID_9_" gradientUnits="userSpaceOnUse" x1="2096.754" y1="186.273" x2="2026.665" y2="849.425"><stop offset="0" id="stop97" stop-color="#f6d59b"/><stop offset=".147" id="stop99" stop-color="#bea39b"/><stop offset=".26" id="stop101" stop-color="#676279"/><stop offset=".402" id="stop103" stop-color="#3a4c57"/><stop offset="1" id="stop105" stop-color="#3a4850"/></linearGradient><linearGradient id="SVGID_10_" gradientUnits="userSpaceOnUse" x1="1413.029" y1="-57.047" x2="1540.968" y2="-55.096" gradientTransform="rotate(2.511 3839.983 236.867) scale(.99996)"><stop offset="0" id="stop510" stop-color="#f2fafe"/><stop offset=".209" id="stop512" stop-color="#f3c187"/><stop offset=".432" id="stop514" stop-color="#eb8d80"/><stop offset=".465" id="stop516" stop-color="#c77e75"/><stop offset=".512" id="stop518" stop-color="#996b66"/><stop offset=".562" id="stop520" stop-color="#705a59"/><stop offset=".613" id="stop522" stop-color="#504c4e"/><stop offset=".665" id="stop524" stop-color="#364146"/><stop offset=".719" id="stop526" stop-color="#243a41"/><stop offset=".775" id="stop528" stop-color="#19353d"/><stop offset=".84" id="stop530" stop-color="#16343c"/></linearGradient><linearGradient id="SVGID_11_" gradientUnits="userSpaceOnUse" x1="768.234" y1="-115.589" x2="1256.541" y2="-133.835" gradientTransform="matrix(1 0 0 -1 0 270)"><stop offset="0" id="stop535" stop-color="#404f58"/><stop offset=".342" id="stop537" stop-color="#41535d"/><stop offset=".882" id="stop539" stop-color="#445e6d"/><stop offset="1" id="stop541" stop-color="#456171"/></linearGradient><linearGradient id="SVGID_12_" gradientUnits="userSpaceOnUse" x1="1123.218" y1="99.067" x2="1035.703" y2="-117.29" gradientTransform="matrix(1 0 0 -1 0 270)"><stop offset=".114" id="stop546" stop-color="#334d5a"/><stop offset="1" id="stop548" stop-color="#384a56"/></linearGradient><linearGradient id="SVGID_13_" gradientUnits="userSpaceOnUse" x1="1586.706" y1="-183.447" x2="927.542" y2="-219.452" gradientTransform="matrix(1 0 0 -1 0 270)"><stop offset="0" id="stop553" stop-color="#303d44"/><stop offset=".564" id="stop555" stop-color="#34424a"/><stop offset=".972" id="stop557" stop-color="#223239"/></linearGradient><g id="g3281"><path class="st0" id="sky_x2F_space_1_" d="M755.6-290h1782.3v705.1H755.6z"/><path class="st1" id="river_1_" d="M2541.2 561H1149.9l-301.5.3 167.1-89.7 134.4-81.8h1391.3z"/><g class="st2" id="mountain_1_"><linearGradient gradientTransform="matrix(1 0 0 -1 0 904)" y2="647.342" x2="1319.921" y1="514.14" x1="1319.921" gradientUnits="userSpaceOnUse" id="SVGID_1_"><stop id="stop28" offset="0" stop-color="#425b6a"/><stop id="stop30" offset="1" stop-color="#30414a"/></linearGradient><path id="polygon33" class="st3" d="M1116.7 391.8l-15.9.1.7-1.9 53.6-29.5 17.3-4.5 4.7-8.5 9.6-3.2 7.6-5 11.1 6.2 4.6 1.2 9.2-1.3 20.6-15.1 24.5-17 8 1.1 19-19.4 7.5 3.5 3.7-5.6 8.3-3.4 8-9 7.7-4.8 9.5-10.9 6.2 3 9.6 7.8 10 8.1 8.6 3.1 4.7 3.8 1.6.7 7.1-2 3.9 3.9 4.3 4.3 4.4 4.4 2.6-1.7 10.5 8.7 11.9 8.3 10.4 10.5.5 2.5 5.7-.6 5.9 4h4.6l18.9 13.7 71.6 44.5z"/><linearGradient gradientTransform="matrix(1 0 0 -1 0 904)" y2="548.657" x2="1571.066" y1="500.522" x1="1463.891" gradientUnits="userSpaceOnUse" id="SVGID_2_"><stop id="stop35" offset="0" stop-color="#475e6d"/><stop id="stop37" offset="1" stop-color="#30414a"/></linearGradient><path id="polygon40" class="st4" d="M1560.3 391.8h33.2l-44.6-16.3-36.4-19.4-17.8-11.3-9.6 2.6-17.3 13.5-10.6 6.9-15.8 10.2-12.7 6.2-19.2 7.6h2.6z"/><g id="g65" class="st5"><linearGradient gradientTransform="matrix(1 0 0 -1 0 904)" y2="616.8" x2="1396.421" y1="616.8" x1="1327.721" gradientUnits="userSpaceOnUse" id="SVGID_3_"><stop id="stop42" offset="0" stop-color="#fdd8cd"/><stop id="stop44" offset="1" stop-color="#e9b8ad"/></linearGradient><path id="polygon47" class="st6" d="M1350.1 289.4l-7.6-8.9-3.4-12.9-3.1-2.8 6.2 3 9.6 7.8 10 8.1 8.6 3.1 4.7 3.8 2.9 3 3.1 1.3 2.7-5.6 12.6 12.6-5.1 2.9-1.6 3.4-3.4-2.8-6.5 2.6-7.9-6.1-7.1-4.8 11 12.1-1.6.4-7.8-4.9-5.9-6-6.4-5.1 2.7 5.8-3.8.1-15-14-10.3-8.9 6.9 3.1 4.3.9z"/><path id="polygon49" class="st7" d="M1353.1 309.2l4.5 5.7-4.7-2.3-7.9-2.1 8.2 8.2 7.1 4.4 1 1 5.8-2.4 2.4-1z"/><linearGradient gradientTransform="matrix(1 0 0 -1 0 904)" y2="533.996" x2="1465.81" y1="581.508" x1="1392.361" gradientUnits="userSpaceOnUse" id="SVGID_4_"><stop id="stop51" offset="0" stop-color="#fdd8cd"/><stop id="stop53" offset="1" stop-color="#e9b8ad"/></linearGradient><path id="polygon56" class="st8" d="M1471.4 349.9l-12.5-8.8-10.4-7.5.6 4.7-5.2-4.7-5.9-4-1.8.2-4.4-2.1-6.1-6.2-4.3-4.3-8.6-6.1-3.3-2.2-10.5-8.7-1.2 9.5 1.9 6.8-13.4-11.1-2.7 6.4 1.6 2.6 11.7 10.8-9.8-5.5-9.7-3 2.6 6.8 5.6 4 12.1 10.9-3.4-.4 3.6 4-15.2-5.3-2.8.1-11.8-7.8.6 4.8 13.7 8.8 5.1.8 32.6 8.8-7.7-5.4 18.9 8 10.9.9 3.4.3-26.1-21.9 32.6 20.5 12.4 4.7 3.3 1.6 9.4-7.3z"/><linearGradient gradientTransform="matrix(1 0 0 -1 0 904)" y2="543.85" x2="1548.865" y1="543.85" x1="1494.221" gradientUnits="userSpaceOnUse" id="SVGID_5_"><stop id="stop58" offset="0" stop-color="#fdd8cd"/><stop id="stop60" offset="1" stop-color="#bf8980"/></linearGradient><path id="polygon63" class="st9" d="M1504.6 365.7l-9.4-7.3 9.7 5.4-1.3-1.9 4 2.1-11.2-12.3-2.2-4.1 2.2 1.2-1.7-4 17.8 11.3 36.4 19.4-21.1-6.8-10.6-5.8 7 6.2-6.4-1.7-4.2 2.6z"/></g></g><g id="mountain_-_foreground_1_"><linearGradient gradientTransform="matrix(1 0 0 -1 0 904)" y2="544.1" x2="1419.121" y1="544.1" x1="1096.721" gradientUnits="userSpaceOnUse" id="SVGID_6_"><stop id="stop68" offset="0" stop-color="#3b4952"/><stop id="stop70" offset=".636" stop-color="#3f515e"/><stop id="stop72" offset="1" stop-color="#4e6271"/></linearGradient><path id="polygon75" class="st10" d="M1419.1 391.8l-45.7-23.2-17.7-10.4-13.7-8.1-4.7-2.8-9.3-7.2-11.5-9.2-3.4-.1-4.7-2.8-10.9 7.1-1.7-1.2-17.5 10h-2.8l-5.2 2.5v2.2l-4.1 1.9-7.4 4.5-5.8 3-6.5 3.2-1.3.7-7.2 1.7-10.1-4.8-7.3-4.9-7.4-6-3.8-1.2-3.9-1.2-11.1-6.2-7.5 5-9.6 3.2-4.8 8.5-16.6 4.2-54.9 30.1-4.3 1.5h19.9z"/><linearGradient gradientTransform="matrix(1 0 0 -1 0 904)" y2="531.077" x2="1359.184" y1="566.308" x1="1314.644" gradientUnits="userSpaceOnUse" id="SVGID_7_"><stop id="stop77" offset=".029" stop-color="#fdd8cd"/><stop id="stop79" offset=".465" stop-color="#d9a499"/><stop id="stop81" offset="1" stop-color="#bf8980"/></linearGradient><path id="polygon84" class="st11" d="M1376.5 370.5l-26.1-15.1-13.2-8.9-8.2-5.7-12.5-9.9 4.9 9-6.1-3.1.7 1.3-.2 1.2 1.7 1.6 4.2 4.7 10.3 7.1.9 2.7-14-9.8-4.3-2.5-10.5-6.9 1 2.4-9.3-4.7 1 2.3 2.6 2.2.9 2.1v2l26.9 16.2 4.4 1.5-6.9-5.9 11.9 6.1 9.7 2.6 11.7 2.9-6.9-5.6 11.8 6.8z"/></g><path d="M2263.8 371.6h-40.2l-59.5-1.1h-10.2l-22.3-1.1-34.4-3.4-24.4 4.5-20.4-3.5-21.3 4.1-32.5-12-38.4 7-51.5 8.3-54.4-2.3-28.5 3-12.9 7-13.1-6.2-56.5 3.9-51.7-3.9-48.6 8.9-61.4 2.2-68.7 3.8-18.6 1 14.9 4.2 8.2 1 23.9 2.5 41.9 3.8 87.8 10.5 93.8-1.6 372.3-7.6s136.4 5 136.4-23.7l-9.7-9.3z" class="st12" id="land-right3_1_"/><path id="polygon95" class="st13" d="M2537.1 345.3l-22.6 4.1-9.6-4-40.7-1-54.7 8.3-57.8-2.3-30.3 3-60.4-6.1-64.1 12.3-66 4.2-59.7-2.1-41 12-57.9 2.1-26.1 6.3-47.5 4.4-59.6 3.1-35.3 6.3-26.7-6.4-26.1 6.4-22-2.4-26.1 2.4-7.1 7.5-51.3 3.9-19.9 5.6-22.7 5.9-6.1 1.8-81.5 7.8 36.9 1.9 223.5-1.6 33 5.3H1980l346.1-3.6v-26.2l211.5-12.3z"/><path id="polygon108" class="st14" d="M2510.5 350.2l-64.9-8.8-33.8 8.8-28.4 10.9-18.9.1-35.2-4.2-35.1 14.7-20.8-5.3-23.6 9.4-53.8 8.8-18.9 3.2-11.5-2.3v-1l-8.9-.8-2.6-.5-.6.2-20.9-2-39-7.5-17.4 4.5-28.4 9.8-17.6 12.7-24.7-8.6-18.9.1h-16.2l-19.1-4.2-35 14.7-20.8-5.3-23.7 9.4-25.6 4.3-28.1 4.5-18.9 3.2-23-4.6-17.4 5.6-27.8 17.6-28.1 9.6-15.1 4.6h-18.3l-25 6.1-17.5.5-22.9 10.5h-12l-11.4 4.1 83.8.8-13.2 4.4h-13.4l-11.2 3.5-17.6 1.8 17.6 2.1 21.4 4h32.2l11.8 4.8 25.7 6h27.9l11.8.3 4 .6 23.9 3.2 15.8 2.5v-.5l33.3 4.4 78.9 32.9 35.4-3.8 59.3 15.2 62 3.9 117.8 1.8 355.6-6V353.3z"/><path id="polygon110" class="st15" opacity=".1" fill="#ffecb3" d="M2138.3 347.3H1591l-5.4 4.2 5.4 4.2h147.1l-1.8 3.7 7.5 5.9h382.6l17.3-13.8z"/><path id="path112" d="M1662.9 336.3l6.6-5.1h749c3.6 0 6.6 2.3 6.6 5.1s-3 5.1-6.6 5.1h-749l-6.6-5.1z" class="st15" opacity=".1" fill="#ffecb3"/><path id="polygon114" class="st15" opacity=".1" fill="#ffecb3" d="M833.1 362.8h367.4l6.3-4.6-6.3-4.5H833.1l-6.4 4.5z"/><path id="polygon116" class="st16" opacity=".1" fill="#ffecb3" d="M1545.4 307.9h299l8.3-5.9-8.3-5.9h-299l-8.4 5.9z"/><path id="path118" d="M1934.8 300.9h539.3c3.2 0 5.9-1.7 5.9-3.7s-2.7-3.7-5.9-3.7h-539.3l-5.9 3.7 5.9 3.7z" class="st17" fill="#ffecb3" opacity=".1"/><path id="polygon120" class="st18" d="M2258 316.6h-471.9l-3.8-2.3 3.8-2.4H2258l3.8 2.4z"/><g id="stars_1_"><path id="rect122" class="st19" transform="rotate(-134.999 918.118 6.064)" d="M915.7 3.7h4.8v4.8h-4.8z"/><path id="rect124" class="st19" transform="rotate(-134.999 1061.52 -51.335)" d="M1059.5-53.3h4v4h-4z"/><path id="rect126" class="st19" transform="rotate(-134.999 1324.998 34.723)" d="M1323.6 33.3h2.8v2.8h-2.8z"/><path id="rect128" class="st19" transform="rotate(-134.999 1238.491 -103.213)" d="M1236.5-105.2h4v4h-4z"/><path id="rect130" class="st20" transform="rotate(-134.999 1200.855 -16.914)" d="M1198.4-19.3h4.8v4.8h-4.8z"/><path id="rect132" class="st19" transform="rotate(-134.999 1739.445 -97.035)" d="M1737-99.4h4.8v4.8h-4.8z"/><path id="rect134" class="st19" transform="rotate(-134.999 1328.417 89.773)" d="M1326 87.4h4.8v4.8h-4.8z"/><path id="rect136" class="st19" transform="rotate(-134.999 1477.738 -126.005)" d="M1475.7-128h4v4h-4z"/><path id="rect138" class="st19" transform="rotate(-134.999 1317.714 181.498)" d="M1315.3 179.1h4.8v4.8h-4.8z"/><path id="rect140" class="st19" transform="rotate(-134.999 1348.135 -105.19)" d="M1346.1-107.2h4v4h-4z"/><path id="rect142" class="st19" transform="rotate(-134.999 1214.296 115.483)" d="M1211.9 113.1h4.8v4.8h-4.8z"/><path id="rect144" class="st19" transform="rotate(-134.999 1389.61 9.566)" d="M1387.2 7.2h4.8V12h-4.8z"/><path id="rect146" class="st20" transform="rotate(-134.999 888.236 122.318)" d="M885.8 119.9h4.8v4.8h-4.8z"/><path id="rect148" class="st19" transform="rotate(-134.999 990.492 -27.205)" d="M988.1-29.6h4.8v4.8h-4.8z"/><path id="rect150" class="st19" transform="rotate(-134.999 1252.532 68.64)" d="M1250.1 66.2h4.8V71h-4.8z"/><path id="rect152" class="st19" transform="rotate(-134.999 1098.724 11.38)" d="M1096.3 9h4.8v4.8h-4.8z"/><path id="rect154" class="st19" transform="rotate(-134.999 862.126 167.727)" d="M859.7 165.3h4.8v4.8h-4.8z"/><path id="rect156" class="st19" transform="rotate(-134.999 1193.6 81.849)" d="M1191.2 79.4h4.8v4.8h-4.8z"/><path id="rect158" class="st19" transform="rotate(-134.999 945.876 -54.588)" d="M943.5-57h4.8v4.8h-4.8z"/><path id="rect160" class="st19" transform="rotate(-134.999 888.522 -105.366)" d="M886.5-107.4h4v4h-4z"/><path id="rect162" class="st19" transform="rotate(-134.999 808.936 21.062)" d="M806.5 18.7h4.8v4.8h-4.8z"/><path id="rect164" class="st19" transform="rotate(-134.999 807.715 -80.023)" d="M805.3-82.4h4.8v4.8h-4.8z"/><path id="rect166" class="st19" transform="rotate(-134.999 954.143 -138.99)" d="M952.1-141h4v4h-4z"/><path id="rect168" class="st20" transform="rotate(-134.999 1056.981 -25.09)" d="M1054.6-27.5h4.8v4.8h-4.8z"/><path id="rect170" class="st19" transform="rotate(-134.999 1506.308 55.1)" d="M1503.9 52.7h4.8v4.8h-4.8z"/><path id="rect172" class="st19" transform="rotate(-134.999 1128.822 138.481)" d="M1126.4 136.1h4.8v4.8h-4.8z"/><path id="rect174" class="st19" transform="rotate(-134.999 1078.839 -134.589)" d="M1076.4-137h4.8v4.8h-4.8z"/><path id="rect176" class="st19" transform="rotate(-134.999 1745.148 -113.598)" d="M1742.7-116h4.8v4.8h-4.8z"/><path id="rect178" class="st19" transform="rotate(-134.999 1182.206 -32.747)" d="M1179.8-35.1h4.8v4.8h-4.8z"/><path id="rect180" class="st20" transform="rotate(-134.999 1052.694 112.984)" d="M1050.3 110.6h4.8v4.8h-4.8z"/><path id="rect182" class="st20" transform="rotate(-134.999 1004.544 22)" d="M1002.1 19.6h4.8v4.8h-4.8z"/><path id="rect184" class="st19" transform="rotate(-134.999 1281.93 -17.132)" d="M1280.5-18.5h2.8v2.8h-2.8z"/><path id="rect186" class="st19" transform="rotate(-134.999 768.94 85.804)" d="M766.5 83.4h4.8v4.8h-4.8z"/><path id="rect188" class="st19" transform="rotate(-134.999 1069.3 126.09)" d="M1066.9 123.7h4.8v4.8h-4.8z"/><path id="rect190" class="st19" transform="rotate(-134.999 1125.444 -1.698)" d="M1123-4.1h4.8V.7h-4.8z"/><path id="rect192" class="st19" transform="rotate(-134.999 1082.19 -5.17)" d="M1080.6-6.7h3.1v3.1h-3.1z"/><path id="rect194" class="st19" transform="rotate(-134.999 897.567 99.884)" d="M896 98.3h3.1v3.1H896z"/><path id="rect196" class="st19" transform="rotate(-134.999 875.88 -34.916)" d="M874.3-36.5h3.1v3.1h-3.1z"/><path id="rect198" class="st19" transform="rotate(-134.999 949.273 155.371)" d="M947.7 153.8h3.1v3.1h-3.1z"/><path id="rect200" class="st19" transform="rotate(-96.742 935.516 68.657)" d="M934 67.1h3.1v3.1H934z"/><path id="rect202" class="st19" transform="rotate(-134.999 1882.139 -105.082)" d="M1879.7-107.5h4.8v4.8h-4.8z"/><path id="rect204" class="st19" transform="rotate(-134.999 1825.174 -155.702)" d="M1822.8-158.1h4.8v4.8h-4.8z"/><path id="rect206" class="st19" transform="rotate(-134.999 1174.183 -116.916)" d="M1171.8-119.3h4.8v4.8h-4.8z"/><path id="rect208" class="st19" transform="rotate(-134.999 1299.394 -116.89)" d="M1297-119.3h4.8v4.8h-4.8z"/><path id="rect210" class="st20" transform="rotate(-134.999 904.736 54.539)" d="M903 52.8h3.4v3.4H903z"/><path id="rect212" class="st19" transform="rotate(-134.999 799.902 125.706)" d="M797.5 123.3h4.8v4.8h-4.8z"/><path id="rect214" class="st19" transform="rotate(-134.999 1015.602 81.328)" d="M1013.9 79.6h3.4V83h-3.4z"/><path id="rect216" class="st20" transform="rotate(-134.999 1124.703 19.2)" d="M1122.3 16.8h4.8v4.8h-4.8z"/><path id="rect218" class="st20" transform="rotate(-134.999 938.338 61.324)" d="M936.6 59.6h3.4V63h-3.4z"/><path id="rect220" class="st19" transform="rotate(-134.999 1368.821 99.892)" d="M1366.4 97.5h4.8v4.8h-4.8z"/><path id="rect222" class="st20" transform="rotate(-134.999 973.813 25.527)" d="M972.1 23.8h3.4v3.4h-3.4z"/><path id="rect224" class="st20" transform="rotate(-134.999 1142.258 73.088)" d="M1139.9 70.7h4.8v4.8h-4.8z"/><path id="rect226" class="st19" transform="rotate(-134.999 1223.414 14.114)" d="M1221.4 12.1h4v4h-4z"/><path id="rect228" class="st19" transform="rotate(-134.999 1165.487 -86.399)" d="M1163.1-88.8h4.8v4.8h-4.8z"/><path id="rect230" class="st19" transform="rotate(-134.999 1197.032 174.364)" d="M1194.6 172h4.8v4.8h-4.8z"/><path id="rect232" class="st19" transform="rotate(-134.999 1016.117 -90.868)" d="M1014.1-92.9h4v4h-4z"/><path id="rect234" class="st19" transform="rotate(-134.999 964.394 2.677)" d="M962.7 1h3.4v3.4h-3.4z"/><path id="rect236" class="st19" transform="rotate(-134.999 1066.404 145.096)" d="M1064.7 143.4h3.4v3.4h-3.4z"/><path id="rect238" class="st19" transform="rotate(-134.999 1037.654 26.91)" d="M1035.9 25.2h3.4v3.4h-3.4z"/><path id="rect240" class="st19" transform="rotate(-134.999 924.335 -52.731)" d="M921.9-55.1h4.8v4.8h-4.8z"/><path id="rect242" class="st19" transform="rotate(-134.999 1489.826 129.39)" d="M1487.4 127h4.8v4.8h-4.8z"/><path id="rect244" class="st19" transform="rotate(-134.999 1484.327 -38.634)" d="M1481.9-41h4.8v4.8h-4.8z"/><path id="rect246" class="st19" transform="rotate(-134.999 892.927 27.905)" d="M891.2 26.2h3.4v3.4h-3.4z"/><path id="rect248" class="st19" transform="rotate(-134.999 1330.948 -64.99)" d="M1328.5-67.4h4.8v4.8h-4.8z"/><path id="rect250" class="st19" transform="rotate(-134.999 1308.42 34.266)" d="M1307 32.9h2.8v2.8h-2.8z"/><path id="rect252" class="st19" transform="rotate(-134.999 837.506 66.426)" d="M836 64.9h3.1V68H836z"/><path id="rect254" class="st19" transform="rotate(-134.999 2019.625 -149.874)" d="M2017.2-152.3h4.8v4.8h-4.8z"/><path id="rect256" class="st19" transform="rotate(21.844 1665.106 61.9)" d="M1663.6 60.3h3.1v3.1h-3.1z"/><path id="rect258" class="st19" transform="rotate(21.844 1737.991 177.281)" d="M1736.5 175.7h3.1v3.1h-3.1z"/><path id="rect260" class="st19" transform="rotate(21.844 1595.71 31.146)" d="M1594.2 29.6h3.1v3.1h-3.1z"/><path id="rect262" class="st19" transform="rotate(60.099 1642.553 105.417)" d="M1641 103.9h3.1v3.1h-3.1z"/><path id="rect264" class="st19" transform="rotate(21.844 1928.091 71.401)" d="M1926.5 69.8h3.1v3.1h-3.1z"/><path id="rect266" class="st19" transform="rotate(21.844 2017.888 51.14)" d="M2016.3 49.6h3.1v3.1h-3.1z"/><path id="rect268" class="st19" transform="rotate(21.844 1975.978 84.867)" d="M1974.3 83.1h3.4v3.4h-3.4z"/><path id="rect270" class="st19" transform="rotate(21.844 1563.834 125.452)" d="M1562.1 123.7h3.4v3.4h-3.4z"/><path id="rect272" class="st19" transform="rotate(21.844 1846.842 135.587)" d="M1845.2 133.9h3.4v3.4h-3.4z"/><path id="rect274" class="st19" transform="rotate(21.844 1908.937 134.437)" d="M1907.2 132.7h3.4v3.4h-3.4z"/><path id="rect276" class="st19" transform="rotate(21.844 1641.706 177.546)" d="M1640 175.8h3.4v3.4h-3.4z"/><path id="rect278" class="st19" transform="rotate(21.844 1564.908 184.07)" d="M1563.2 182.3h3.4v3.4h-3.4z"/><path id="rect280" class="st19" transform="rotate(21.844 1697.639 126.325)" d="M1695.9 124.6h3.4v3.4h-3.4z"/><path id="rect282" class="st19" transform="rotate(21.844 1733.424 68.994)" d="M1731.9 67.4h3.1v3.1h-3.1z"/><path id="rect284" class="st19" transform="rotate(21.844 1974.497 69.74)" d="M1973 68.2h3.1v3.1h-3.1z"/><path id="rect286" class="st19" transform="rotate(21.844 2008.613 2.203)" d="M2007.1.6h3.1v3.1h-3.1z"/><path id="rect288" class="st19" transform="rotate(7.387 1906.155 -46.95)" d="M1903.7-49.2h4.8v4.8h-4.8z"/><path id="rect290" class="st19" transform="rotate(7.387 1581.869 -80.036)" d="M1579.5-82.3h4.8v4.8h-4.8z"/><path id="rect292" class="st19" transform="rotate(7.387 1544.96 -9.427)" d="M1542.6-11.7h4.8v4.8h-4.8z"/><path id="rect294" class="st19" transform="rotate(7.387 1435.67 26.08)" d="M1433.3 23.8h4.8v4.8h-4.8z"/><path id="rect296" class="st19" transform="rotate(7.387 1729.263 -5.046)" d="M1726.9-7.3h4.8v4.8h-4.8z"/><path id="rect298" class="st19" transform="rotate(7.387 1596.975 -14.927)" d="M1594.6-17.2h4.8v4.8h-4.8z"/><path id="rect300" class="st19" transform="rotate(7.387 1920.959 -17.25)" d="M1918.6-19.5h4.8v4.8h-4.8z"/><path id="rect302" class="st19" transform="rotate(7.387 1388.946 -82.613)" d="M1386.5-84.9h4.8v4.8h-4.8z"/><path id="rect304" class="st19" transform="rotate(7.387 1804.151 -9.648)" d="M1801.7-11.9h4.8v4.8h-4.8z"/><path id="rect306" class="st19" transform="rotate(7.387 1612.868 -29.625)" d="M1610.5-31.9h4.8v4.8h-4.8z"/><path id="rect308" class="st19" transform="rotate(7.387 1921.255 26.646)" d="M1918.8 24.4h4.8v4.8h-4.8z"/><path id="rect310" class="st19" transform="rotate(-134.999 1841.252 53.185)" d="M1838.8 50.8h4.8v4.8h-4.8z"/><path id="rect312" class="st19" transform="rotate(-134.999 1785.821 80.617)" d="M1783.4 78.2h4.8V83h-4.8z"/><path id="rect314" class="st19" transform="rotate(-134.999 1939.141 164.307)" d="M1936.7 161.9h4.8v4.8h-4.8z"/><path id="rect316" class="st19" transform="rotate(-134.999 1972.522 -68.272)" d="M1970.1-70.7h4.8v4.8h-4.8z"/><path id="rect318" class="st19" transform="rotate(-134.999 1957.106 6.049)" d="M1954.7 3.6h4.8v4.8h-4.8z"/><path id="rect320" class="st19" transform="rotate(-134.999 1792.94 -127.363)" d="M1791.4-128.9h3.1v3.1h-3.1z"/><path id="rect322" class="st19" transform="rotate(-134.999 1810.015 -64.695)" d="M1808.3-66.4h3.4v3.4h-3.4z"/><path id="rect324" class="st19" transform="rotate(-134.999 1754.635 -25.95)" d="M1753.1-27.5h3.1v3.1h-3.1z"/><path id="rect326" class="st19" transform="rotate(-134.999 1861.226 -273.03)" d="M1858.8-275.4h4.8v4.8h-4.8z"/><path id="rect328" class="st19" transform="rotate(-134.999 1805.725 -245.71)" d="M1803.3-248.1h4.8v4.8h-4.8z"/><path id="rect330" class="st19" transform="rotate(-134.999 2492.706 -252.997)" d="M2490.3-255.4h4.8v4.8h-4.8z"/><path id="rect332" class="st19" transform="rotate(-134.999 2067.905 -249.083)" d="M2065.5-251.5h4.8v4.8h-4.8z"/><path id="rect334" class="st19" transform="rotate(-134.999 2001.748 -274.61)" d="M1999.3-277h4.8v4.8h-4.8z"/><path id="rect336" class="st19" transform="rotate(-96.742 2234.432 -266.159)" d="M2232.9-267.7h3.1v3.1h-3.1z"/><path id="rect338" class="st19" transform="rotate(-134.999 2314.637 -253.589)" d="M2312.9-255.3h3.4v3.4h-3.4z"/><path id="rect340" class="st19" transform="rotate(-134.999 2136.541 -268.35)" d="M2135-269.9h3.1v3.1h-3.1z"/><path id="rect342" class="st19" transform="rotate(-134.999 1509.01 -244.916)" d="M1506.6-247.3h4.8v4.8h-4.8z"/><path id="rect344" class="st19" transform="rotate(-134.999 1433.053 -266.12)" d="M1430.6-268.5h4.8v4.8h-4.8z"/><path id="rect346" class="st19" transform="rotate(-134.999 1374.191 -252.84)" d="M1371.8-255.2h4.8v4.8h-4.8z"/><path id="rect348" class="st19" transform="rotate(-134.999 1616.747 -250.852)" d="M1615.2-252.4h3.1v3.1h-3.1z"/><path id="rect350" class="st19" transform="rotate(-134.999 2074 76.103)" d="M2071.6 73.7h4.8v4.8h-4.8z"/><path id="rect352" class="st19" transform="rotate(-134.999 2295.61 -10.746)" d="M2293.2-13.2h4.8v4.8h-4.8z"/><path id="rect354" class="st19" transform="rotate(-134.999 2439.012 -68.146)" d="M2437-70.2h4v4h-4z"/><path id="rect356" class="st19" transform="rotate(-134.999 2057.316 -138.39)" d="M2055.6-140.1h3.4v3.4h-3.4z"/><path id="rect358" class="st19" transform="rotate(-134.999 2367.914 -44.128)" d="M2365.5-46.5h4.8v4.8h-4.8z"/><path id="rect360" class="st19" transform="rotate(-134.999 2476.188 -5.542)" d="M2473.8-7.9h4.8v4.8h-4.8z"/><path id="rect362" class="st19" transform="rotate(-134.999 2239.548 150.805)" d="M2237.1 148.4h4.8v4.8h-4.8z"/><path id="rect364" class="st19" transform="rotate(-134.999 2089.28 -152.201)" d="M2086.9-154.6h4.8v4.8h-4.8z"/><path id="rect366" class="st19" transform="rotate(-134.999 2323.298 -71.51)" d="M2320.9-73.9h4.8v4.8h-4.8z"/><path id="rect368" class="st19" transform="rotate(-134.999 2266.015 -122.176)" d="M2264-124.2h4v4h-4z"/><path id="rect370" class="st19" transform="rotate(-134.999 2106.78 -118.692)" d="M2104.4-121.1h4.8v4.8h-4.8z"/><path id="rect372" class="st19" transform="rotate(-134.999 2186.47 4.21)" d="M2184.1 1.8h4.8v4.8h-4.8z"/><path id="rect374" class="st19" transform="rotate(-134.999 2185.25 -97.016)" d="M2182.8-99.4h4.8v4.8h-4.8z"/><path id="rect376" class="st19" transform="rotate(-134.999 2331.636 -155.8)" d="M2329.6-157.8h4v4h-4z"/><path id="rect378" class="st19" transform="rotate(-134.999 2456.19 -151.44)" d="M2453.8-153.8h4.8v4.8h-4.8z"/><path id="rect380" class="st19" transform="rotate(-134.999 2146.291 68.953)" d="M2143.9 66.5h4.8v4.8h-4.8z"/><path id="rect382" class="st19" transform="rotate(-134.999 2080.205 43.497)" d="M2077.8 41.1h4.8v4.8h-4.8z"/><path id="rect384" class="st19" transform="rotate(-134.999 2446.834 109.097)" d="M2444.4 106.7h4.8v4.8h-4.8z"/><path id="rect386" class="st19" transform="rotate(-134.999 2459.684 -21.98)" d="M2458.1-23.5h3.1v3.1h-3.1z"/><path id="rect388" class="st19" transform="rotate(-134.999 2275.06 83.073)" d="M2273.5 81.5h3.1v3.1h-3.1z"/><path id="rect390" class="st19" transform="rotate(-134.999 2253.373 -51.727)" d="M2251.8-53.3h3.1v3.1h-3.1z"/><path id="rect392" class="st19" transform="rotate(-134.999 2326.766 138.56)" d="M2325.2 137h3.1v3.1h-3.1z"/><path id="rect394" class="st19" transform="rotate(-96.742 2312.928 51.894)" d="M2311.4 50.4h3.1v3.1h-3.1z"/><path id="rect396" class="st19" transform="rotate(-134.999 2177.324 108.783)" d="M2174.9 106.4h4.8v4.8h-4.8z"/><path id="rect398" class="st19" transform="rotate(-134.999 2393.094 64.517)" d="M2391.4 62.8h3.4v3.4h-3.4z"/><path id="rect400" class="st19" transform="rotate(-134.999 2136.814 -56.24)" d="M2135.1-57.9h3.4v3.4h-3.4z"/><path id="rect402" class="st19" transform="rotate(-134.999 2079.437 -79.564)" d="M2077.7-81.3h3.4v3.4h-3.4z"/><path id="rect404" class="st19" transform="rotate(-134.999 2393.539 -107.79)" d="M2391.5-109.8h4v4h-4z"/><path id="rect406" class="st19" transform="rotate(-134.999 2341.816 -14.246)" d="M2340.1-16h3.4v3.4h-3.4z"/><path id="rect408" class="st19" transform="rotate(-134.999 2443.897 128.286)" d="M2442.2 126.6h3.4v3.4h-3.4z"/><path id="rect410" class="st19" transform="rotate(-134.999 2415.147 10.099)" d="M2413.4 8.4h3.4v3.4h-3.4z"/><path id="rect412" class="st19" transform="rotate(-134.999 2301.827 -69.583)" d="M2299.4-72h4.8v4.8h-4.8z"/><path id="rect414" class="st19" transform="rotate(-134.999 2270.349 10.983)" d="M2268.6 9.3h3.4v3.4h-3.4z"/><path id="rect416" class="st19" transform="rotate(-134.999 2106.779 8.708)" d="M2104.4 6.3h4.8v4.8h-4.8z"/><path id="rect418" class="st19" transform="rotate(-134.999 2214.998 49.616)" d="M2213.4 48.1h3.1v3.1h-3.1z"/><path id="rect420" class="st19" transform="rotate(-134.999 2525.226 -15.093)" d="M2522.8-17.5h4.8v4.8h-4.8z"/><path id="rect422" class="st19" transform="rotate(-134.999 2499.128 14.789)" d="M2497.4 13.1h3.4v3.4h-3.4z"/><path id="rect424" class="st19" transform="rotate(-134.999 885.032 -281.677)" d="M882.6-284.1h4.8v4.8h-4.8z"/><path id="rect426" class="st19" transform="rotate(-134.999 1065.497 -276.402)" d="M1063.1-278.8h4.8v4.8h-4.8z"/><path id="rect428" class="st19" transform="rotate(-134.999 775.708 -266.72)" d="M773.3-269.1h4.8v4.8h-4.8z"/><path id="rect430" class="st19" transform="rotate(-96.742 902.28 -219.05)" d="M900.7-220.6h3.1v3.1h-3.1z"/><path id="rect432" class="st19" transform="rotate(-134.999 1004.427 -260.873)" d="M1002.7-262.6h3.4v3.4h-3.4z"/><path id="rect434" class="st19" transform="rotate(-134.999 859.699 -259.878)" d="M858-261.6h3.4v3.4H858z"/><path id="rect436" class="st19" transform="rotate(-134.999 804.349 -221.244)" d="M802.8-222.8h3.1v3.1h-3.1z"/><path id="rect438" class="st19" transform="rotate(-134.999 1222.738 -247.438)" d="M1220.3-249.8h4.8v4.8h-4.8z"/><path id="rect440" class="st19" transform="rotate(-134.999 1249.458 -260.517)" d="M1247.1-262.9h4.8v4.8h-4.8z"/><path id="rect442" class="st19" transform="rotate(-134.999 1206.275 -263.917)" d="M1204.7-265.5h3.1v3.1h-3.1z"/><path id="rect444" class="st19" transform="rotate(-134.999 1088.437 -256.071)" d="M1086.7-257.8h3.4v3.4h-3.4z"/><path id="rect446" class="st19" transform="rotate(-134.999 1161.627 -231.768)" d="M1159.9-233.5h3.4v3.4h-3.4z"/><path id="rect448" class="st19" transform="rotate(-134.999 1324.958 -217.017)" d="M1323.6-218.4h2.8v2.8h-2.8z"/><path id="rect450" class="st19" transform="rotate(-134.999 1328.448 -161.896)" d="M1326-164.3h4.8v4.8h-4.8z"/><path id="rect452" class="st19" transform="rotate(-134.999 1252.422 -183.028)" d="M1250-185.4h4.8v4.8h-4.8z"/><path id="rect454" class="st19" transform="rotate(-134.999 1193.63 -169.82)" d="M1191.2-172.2h4.8v4.8h-4.8z"/><path id="rect456" class="st19" transform="rotate(-134.999 1506.31 -196.638)" d="M1503.9-199h4.8v4.8h-4.8z"/><path id="rect458" class="st19" transform="rotate(-134.999 768.9 -165.793)" d="M766.5-168.2h4.8v4.8h-4.8z"/><path id="rect460" class="st19" transform="rotate(-134.999 897.456 -151.785)" d="M895.9-153.3h3.1v3.1h-3.1z"/><path id="rect462" class="st19" transform="rotate(-96.742 935.423 -182.961)" d="M933.9-184.5h3.1v3.1h-3.1z"/><path id="rect464" class="st19" transform="rotate(-134.999 1015.562 -170.411)" d="M1013.9-172.1h3.4v3.4h-3.4z"/><path id="rect466" class="st19" transform="rotate(-134.999 1368.781 -151.706)" d="M1366.4-154.1h4.8v4.8h-4.8z"/><path id="rect468" class="st19" transform="rotate(-134.999 1308.45 -217.402)" d="M1307-218.8h2.8v2.8h-2.8z"/><path id="rect470" class="st19" transform="rotate(-134.999 837.578 -185.243)" d="M836-186.8h3.1v3.1H836z"/><path id="rect472" class="st19" transform="rotate(21.844 1665.134 -189.79)" d="M1663.6-191.4h3.1v3.1h-3.1z"/><path id="rect474" class="st19" transform="rotate(60.099 1642.412 -146.232)" d="M1640.9-147.8h3.1v3.1h-3.1z"/><path id="rect476" class="st19" transform="rotate(21.844 1928.12 -180.29)" d="M1926.6-181.9h3.1v3.1h-3.1z"/><path id="rect478" class="st19" transform="rotate(21.844 2017.916 -200.552)" d="M2016.4-202.1h3.1v3.1h-3.1z"/><path id="rect480" class="st19" transform="rotate(21.844 1975.937 -166.752)" d="M1974.2-168.5h3.4v3.4h-3.4z"/><path id="rect482" class="st19" transform="rotate(21.844 1733.382 -182.625)" d="M1731.8-184.2h3.1v3.1h-3.1z"/><path id="rect484" class="st19" transform="rotate(21.844 1974.456 -181.878)" d="M1972.9-183.5h3.1v3.1h-3.1z"/><path id="rect486" class="st19" transform="rotate(-134.999 1841.324 -198.483)" d="M1838.9-200.9h4.8v4.8h-4.8z"/><path id="rect488" class="st19" transform="rotate(-134.999 1785.71 -171.052)" d="M1783.3-173.5h4.8v4.8h-4.8z"/><path id="rect490" class="st19" transform="rotate(-134.999 2074.03 -175.566)" d="M2071.6-178h4.8v4.8h-4.8z"/><path id="rect492" class="st19" transform="rotate(-134.999 2146.322 -182.716)" d="M2143.9-185.1h4.8v4.8h-4.8z"/><path id="rect494" class="st19" transform="rotate(-134.999 2080.235 -208.172)" d="M2077.8-210.6h4.8v4.8h-4.8z"/><path id="rect496" class="st19" transform="rotate(-134.999 2446.794 -142.5)" d="M2444.4-144.9h4.8v4.8h-4.8z"/><path id="rect498" class="st19" transform="rotate(-134.999 2275.061 -168.666)" d="M2273.5-170.2h3.1v3.1h-3.1z"/><path id="rect500" class="st19" transform="rotate(-96.742 2312.923 -199.836)" d="M2311.4-201.4h3.1v3.1h-3.1z"/><path id="rect502" class="st19" transform="rotate(-134.999 2177.284 -142.814)" d="M2174.9-145.2h4.8v4.8h-4.8z"/><path id="rect504" class="st19" transform="rotate(-134.999 2393.096 -187.222)" d="M2391.4-188.9h3.4v3.4h-3.4z"/><path id="rect506" class="st19" transform="rotate(-134.999 2215.07 -202.053)" d="M2213.5-203.6h3.1v3.1h-3.1z"/></g><path d="M1528.4 110c1.5 1.7 2.4 3.9 2.4 6.3 0 5.3-4.3 9.6-9.6 9.6-1.7 0-3.3-.4-4.6-1.2 1.8 2 4.4 3.3 7.3 3.3 5.3 0 9.6-4.3 9.6-9.6-.1-3.5-2.1-6.7-5.1-8.4z" class="st21" id="moon_1_"/><path id="path533" d="M1436.4-164.7l-7.2-.3-1.2.6 1.1.7c5.4.2 10.9.4 16.5.6 46.1 2 86.9 5.8 112.1 9.8-23.6-4.7-69-9.1-121.3-11.4z" class="st22"/><path id="polygon544" class="st23" d="M1263.6 404.7l-.3-.3-5.6-1.1-7.2-4.8-1.7-.8 8.4-.7 3.4-2.3 7.3.7 20.5-5.7-13.8.1h-6.3l-14.7-1.7-4.5.8-4.7-.8-14.5 1.3-18.6-4.5-19 .6-6.9 2.2-13.5-1.8-5.3-2.7-13.3 1.8-11.4.2-10.8-2.6h-34.8l-9.2-5.3h-53.7l-10.5-7.1-36.8 7.7-28.5-7.2-78.8 2.7-44.4-15-31.5 2.5-45.6-5-1.7-1v51.6h121.8l52.5 5.7 33.5 10.9 98.1-6.4 40.5 8.1 41.3-1.7 36.2 2.4-12.2-6.3 13.8-6.3 5.5 1.9 5.2-2.9 19.7-1.2 3.6-.8 27.5-.5h19.2l1.8-.4 8.2-.7-2.8-1.6z"/><path id="polygon551" class="st24" d="M1293.4 431.4l-23.7-4.7-32.5-2.5-21.7-7-17.1-1.9-38.8 4.1-57.4-14.5-55 7-48.5-8.7-42.1 2.3-34.2-4.4-11.2-7.8-36.1-3.6H846l-5.3 4-19.8-6.4-17.1-1.9-38.8 4.1-9.4-5v70.1l11.6-7.8 13.4 2 5.2 28.5 35-.3 64.8-1.8 78.4 1.5 105.9-.5 37 .5 30.3-19.1 30 1.6 32.4-10 14.2-8.3 27-4.1 38.3.7 19.1-4z"/><path id="polygon560" class="st25" d="M1169.1 493.4l-31.7-14.5-27.6 1.9-28.5-16.3-48.5-11.3-44.3-10.6-51.8.6-74.1-12.3-26.6 2.5v-.1l-80.4-7.9v135.9H928.7l33.5-.3 80.1-16.8 36.6-3.1 33.1-8 25-13.2 21.8-2.7 11.1 1.4 26.8-2 23.9-4.6z"/><path id="polygon562" class="st26" opacity=".1" fill="#ffecb3" d="M1265.6 305.3l-5.7-4H755.6v15.8H1088l8.4-5.9-.4-2h163.9z"/><path id="polygon564" class="st26" opacity=".1" fill="#ffecb3" d="M1181.5 328H755.6v8.5h425.9l6.1-4.3z"/></g><g id="g1275"><g id="g1273"><defs id="defs567"><path id="SVGID_14_" d="M755.6-290h1780v850h-1780z"/></defs><clipPath id="SVGID_15_"><use xlink:href="#SVGID_14_" id="use569" overflow="visible"/></clipPath><g class="st27" clip-path="url(#SVGID_15_)" id="g1271"><g id="g1260"><g id="g579"><linearGradient id="SVGID_16_" gradientUnits="userSpaceOnUse" x1="5488.925" y1="-372.682" x2="5493.544" y2="-316.67" gradientTransform="rotate(180 3743.416 135)"><stop offset=".264" id="stop572" stop-color="#293942"/><stop offset="1" id="stop574" stop-color="#0f1b21"/></linearGradient><path class="st28" id="polygon577" d="M2183 566.5l-12.3 47.6-53.5 17.8-177.3 15.9-58.6-4.9-46.8-11.8-27.4-10.8-4-18.7 31.4-101.2 277.4-41.2 64.1 23z"/></g><linearGradient id="SVGID_17_" gradientUnits="userSpaceOnUse" x1="5497.643" y1="-178.296" x2="5496.401" y2="-331.123" gradientTransform="rotate(180 3743.416 135)"><stop offset="0" id="stop581" stop-color="#4e5663"/><stop offset=".272" id="stop583" stop-color="#a6a8ab"/><stop offset=".809" id="stop585" stop-color="#a6a8ab"/><stop offset=".927" id="stop587" stop-color="#cfd0d2"/></linearGradient><path class="st29" id="polygon590" d="M2221.6 421.2l7.7 36.5-4.5 41-12.5 42.9-32.2 48.2-47.4 18.9-63.3 22.1-31.9-16-99.7-32h-31.4l-50.6 17.7-20.8 16.9-15.2 7.9-17.6-1.5-22.5-50.7-30.5-113.9 8.6-47.7 19.7-10.3 83.6-5.3 61.8 55.2 253.4-37.9z"/><g id="g659"><linearGradient id="SVGID_18_" gradientUnits="userSpaceOnUse" x1="1136.086" y1="1216.315" x2="1087.105" y2="1186.368" gradientTransform="scale(1 -1) rotate(33.196 4195.84 1567.881)"><stop offset="0" id="stop592" stop-color="#929497"/><stop offset="1" id="stop594" stop-color="#293942"/></linearGradient><path class="st30" id="polygon597" d="M1821 466.5l-8.1-23.4-4.3-27 2-15.4-3.4-6-3.8 19.1 4 30.2 6.8 25.3z"/><linearGradient id="SVGID_19_" gradientUnits="userSpaceOnUse" x1="1125.051" y1="1219.035" x2="1067.018" y2="1152.497" gradientTransform="scale(1 -1) rotate(34.682 4175.23 1495.362)"><stop offset="0" id="stop599" stop-color="#5b3528"/><stop offset=".17" id="stop601" stop-color="#5b3427"/><stop offset=".206" id="stop603" stop-color="#743a21"/><stop offset=".253" id="stop605" stop-color="#8f411c"/><stop offset=".301" id="stop607" stop-color="#a24517"/><stop offset=".35" id="stop609" stop-color="#ad4815"/><stop offset=".402" id="stop611" stop-color="#b14914"/><stop offset=".572" id="stop613" stop-color="#5b3528"/></linearGradient><path class="st31" id="polygon616" d="M1835.6 460.9l7.1 19.8 13 40.7-44.9 10.3L1797 517l-11.3-27 .3-17.8 37.1-14.2z"/><linearGradient id="SVGID_20_" gradientUnits="userSpaceOnUse" x1="1273.679" y1="1467.878" x2="1211.37" y2="1397.918" gradientTransform="scale(1 -1) rotate(39.844 4115.95 1267.84)"><stop offset="0" id="stop618" stop-color="#cfd0d2"/><stop offset="1" id="stop620" stop-color="#293942"/></linearGradient><path class="st32" id="polygon623" d="M1782.4 400l-1 18.7.9 19.9 3.4 18.7 4.9 13.6 10.9 30.4 24.6-12.4-11.5-27.7-5.1-12.5-3.2-15.9-1.6-19.3 2.5-18.8z"/><g id="g632"><linearGradient id="SVGID_21_" gradientUnits="userSpaceOnUse" x1="1249.43" y1="1437.479" x2="1233.079" y2="1454.596" gradientTransform="scale(1 -1) rotate(39.844 4115.95 1267.84)"><stop offset=".264" id="stop625" stop-color="#455a65"/><stop offset="1" id="stop627" stop-color="#0f1b21"/></linearGradient><path class="st33" id="polygon630" d="M1806.7 435l-23.8 6.5-.5-2.3 23.9-6.4z"/></g><g id="g641"><linearGradient id="SVGID_22_" gradientUnits="userSpaceOnUse" x1="1260.831" y1="1453.861" x2="1244.893" y2="1470.547" gradientTransform="scale(1 -1) rotate(39.844 4115.95 1267.84)"><stop offset=".264" id="stop634" stop-color="#455a65"/><stop offset="1" id="stop636" stop-color="#0f1b21"/></linearGradient><path class="st34" id="polygon639" d="M1805 414.8l-23.6 6.3v-2.4l23.5-5.2z"/></g><g id="g650"><linearGradient id="SVGID_23_" gradientUnits="userSpaceOnUse" x1="1566.123" y1="1793.645" x2="1548.987" y2="1811.584" gradientTransform="scale(1 -1) rotate(51.406 4021.76 923.95)"><stop offset=".264" id="stop643" stop-color="#455a65"/><stop offset="1" id="stop645" stop-color="#0f1b21"/></linearGradient><path class="st35" id="polygon648" d="M1810 450.5l-23.8 8.7-.5-1.9 23.8-8.6z"/></g><linearGradient id="SVGID_24_" gradientUnits="userSpaceOnUse" x1="1114.295" y1="1219.229" x2="1070.946" y2="1169.526" gradientTransform="scale(1 -1) rotate(34.682 4175.23 1495.362)"><stop offset="0" id="stop652" stop-color="#283840"/><stop offset="1" id="stop654" stop-color="#0f1b21"/></linearGradient><path class="st36" id="polygon657" d="M1788.5 481l37.6-13.4 11.8 33.7-13.3 22.3-25.5-9.6z"/></g><g id="g732"><linearGradient id="SVGID_25_" gradientUnits="userSpaceOnUse" x1="5412.511" y1="-242.45" x2="5502.911" y2="-242.45" gradientTransform="rotate(180 3743.416 135)"><stop offset="0" id="stop661" stop-color="#3b2314"/><stop offset="1" id="stop663" stop-color="#754c28"/></linearGradient><path class="st37" id="polygon666" d="M2066.9 465.2l5.1 7.2 2.3 8.2-15.4 26.3 6.2 23.2-28.7 29.6-49.5-18.6-3-5.9 47.2 12.5 21.4-18.5-6-25.6z"/><linearGradient id="SVGID_26_" gradientUnits="userSpaceOnUse" x1="5254.61" y1="-167.7" x2="5450.511" y2="-167.7" gradientTransform="rotate(180 3743.416 135)"><stop offset="0" id="stop668" stop-color="#929497"/><stop offset="1" id="stop670" stop-color="#293942"/></linearGradient><path class="st38" id="polygon673" d="M2224.8 416l7.4 23.2-2.9 18.5-10.4-33.5-42.3-10.2-25.8 3.9-22.7 7.2-25.6 13.5-21.4 15.6-24.4 22.6-8-1.1-12.4-1.6 39.8-43.9 32.8-18.5 28.4-8.8 31.6-4.3 32.1 6.2z"/><linearGradient id="SVGID_27_" gradientUnits="userSpaceOnUse" x1="5464.878" y1="-276.035" x2="5453.689" y2="-191.232" gradientTransform="rotate(180 3743.416 135)"><stop offset="0" id="stop675" stop-color="#0f1b21"/><stop offset=".17" id="stop677" stop-color="#5b3427"/><stop offset=".182" id="stop679" stop-color="#683827"/><stop offset=".225" id="stop681" stop-color="#924625"/><stop offset=".268" id="stop683" stop-color="#b45124"/><stop offset=".312" id="stop685" stop-color="#cf5a23"/><stop offset=".356" id="stop687" stop-color="#e26023"/><stop offset=".402" id="stop689" stop-color="#ed6422"/><stop offset=".451" id="stop691" stop-color="#f16522"/><stop offset=".778" id="stop693" stop-color="#404041"/></linearGradient><path class="st39" id="polygon696" d="M2066.9 465.2l5.1 7.2-20.7 33.3 8.2 23.4-25.1 25.1-50.5-19 .8-12.8 8.4-23.3 20.7-33.8 11.1-5z"/><linearGradient id="SVGID_28_" gradientUnits="userSpaceOnUse" x1="5262.011" y1="-171.55" x2="5467.511" y2="-171.55" gradientTransform="rotate(180 3743.416 135)"><stop offset="0" id="stop698" stop-color="#fff"/><stop offset="1" id="stop700" stop-color="#293942"/></linearGradient><path class="st40" id="polygon703" d="M2144.4 395.3l-31.8 5-25.1 11.8-22.6 13.6-17.5 18.5-17 19.1-11.1 20.3 22.3 4.2 37.4-41 15.3-14.4 26.2-14 30.8-10.1 26.6-3.1 46.9 10.8-36.4-16.8z"/><linearGradient id="SVGID_29_" gradientUnits="userSpaceOnUse" x1="5481.248" y1="-243.811" x2="5443.553" y2="-204.348" gradientTransform="rotate(180 3743.416 135)"><stop offset=".264" id="stop705" stop-color="#455a65"/><stop offset="1" id="stop707" stop-color="#0f1b21"/></linearGradient><path class="st41" id="polygon710" d="M2059.7 476.5l-39.4-5.6-18.4 30.4 6.8 14.7 27.9-7.2z"/><g id="g714"><path class="st42" id="polygon712" d="M2174.8 405.5l3.1-.3-33.9-9.9-2.2.4z"/></g><g id="g718"><path class="st42" id="polygon716" d="M2148.9 409.1l2.4-.8-38.7-8-1.7.8z"/></g><g id="g722"><path class="st42" id="polygon720" d="M2118.6 419.4l1.6-.9-31.3-7-1.9 1z"/></g><g id="g726"><path class="st42" id="polygon724" d="M2092.5 434.1l1.8-1.7-29.4-6.7-1.2 1.6z"/></g><g id="g730"><path class="st42" id="polygon728" d="M2077.1 449.1l1.9-2.3-29.2-5.2-1.6 1.8z"/></g></g><g id="left_arm_3_"><linearGradient id="SVGID_30_" gradientUnits="userSpaceOnUse" x1="5749.132" y1="-461.125" x2="5551.577" y2="-581.91" gradientTransform="rotate(-173.668 3751.887 107.443)"><stop offset="0" id="stop734" stop-color="#f2c086"/><stop offset=".091" id="stop736" stop-color="#bbb3ae"/><stop offset=".316" id="stop738" stop-color="#caccce"/><stop offset=".75" id="stop740" stop-color="#9ea0a3"/></linearGradient><path class="st43" id="polygon743" d="M1778.9 407.3l-1.4-6.1-25.1 10.9-16.1 16.3-13.9 30.8-4.2 59.4 3.3 35.6 18.3 32.6 27 21.4 43.4 19.4 50.3-4.2 50.5-20.6 46.7-36.2-39-33.5-23.4-25.9-51.9-9.8-22.2 2.8-22.8 6-8.6-26.1-4.1-16.4-3.4-25.1-.6-26z"/><linearGradient id="SVGID_31_" gradientUnits="userSpaceOnUse" x1="5614.699" y1="-56.737" x2="5699.918" y2="-56.737" gradientTransform="matrix(-.9968 .08036 -.08036 -.9968 7478.045 1.895)"><stop offset="0" id="stop745" stop-color="#794d3a"/><stop offset="1" id="stop747" stop-color="#36444c"/></linearGradient><path class="st44" id="polygon750" d="M1884.9 504.9l-61.4 24-23.2-19.9.6-6.7 84.1-3.2z"/><linearGradient id="SVGID_32_" gradientUnits="userSpaceOnUse" x1="5652.031" y1="-40.622" x2="5694.511" y2="-74.313" gradientTransform="matrix(-.9968 .08036 -.08036 -.9968 7478.045 1.895)"><stop offset="0" id="stop752" stop-color="#5b3427"/><stop offset=".062" id="stop754" stop-color="#663827"/><stop offset=".171" id="stop756" stop-color="#844126"/><stop offset=".314" id="stop758" stop-color="#b45124"/><stop offset=".474" id="stop760" stop-color="#f16522"/><stop offset=".668" id="stop762" stop-color="#f28f3f"/><stop offset=".888" id="stop764" stop-color="#ed693c"/><stop offset="1" id="stop766" stop-color="#e83e39"/></linearGradient><path class="st45" id="polygon769" d="M1859 484.3l-58.1 18 23.1 19.9 61-23.1z"/><g id="g793"><linearGradient id="SVGID_33_" gradientUnits="userSpaceOnUse" x1="6199.422" y1="-142.114" x2="6139.885" y2="-164.697" gradientTransform="matrix(-.8525 -.00448 .00616 -1.1701 7001.8 299.301)"><stop offset="0" id="stop771" stop-color="#ce9179"/><stop offset=".643" id="stop773" stop-color="#929497"/><stop offset="1" id="stop775" stop-color="#293942"/></linearGradient><path class="st46" id="polygon778" d="M1777.5 401.2l-26.4 22.1-8.6 15.1-3 5.3-3.4 11.8-10.4 37.3-6.7 15.6-3.4-1.7 4.2-38.1 13.4-36.5 21.2-25.8z"/><linearGradient id="SVGID_34_" gradientUnits="userSpaceOnUse" x1="6655.565" y1="-142.07" x2="6592.678" y2="-165.923" gradientTransform="matrix(-.7379 -.00388 .00616 -1.1701 6627.307 297.332)"><stop offset="0" id="stop780" stop-color="#f2c086"/><stop offset=".081" id="stop782" stop-color="#f3a98c"/><stop offset=".184" id="stop784" stop-color="#d37a6d"/><stop offset=".466" id="stop786" stop-color="#cfd0d2"/><stop offset=".777" id="stop788" stop-color="#ccd1d0"/></linearGradient><path class="st47" id="polygon791" d="M1770.7 402.7l-22.5 18.4-8.9 14.5-6.5 16-10.4 38.2-6.8 16.9-1.8-4.8 5.2-32.6 11-33.9 12.2-18.7 12.2-10.4z"/></g><linearGradient id="SVGID_35_" gradientUnits="userSpaceOnUse" x1="5552.21" y1="-283.6" x2="5641.011" y2="-283.6" gradientTransform="rotate(180 3743.416 135)"><stop offset="0" id="stop795" stop-color="#4e5663"/><stop offset="1" id="stop797" stop-color="#a6a8ab"/></linearGradient><path class="st48" id="polygon800" d="M1934.6 584.5l-30.7-24.8-37.7-47.4-20.4 7.9 39.7 46.2 35.8 28.5z"/></g><g id="right_arm_3_"><linearGradient id="SVGID_36_" gradientUnits="userSpaceOnUse" x1="5303.532" y1="-315.928" x2="5547.081" y2="-153.002" gradientTransform="rotate(180 3743.416 135)"><stop offset="0" id="stop803" stop-color="#f2c086"/><stop offset=".091" id="stop805" stop-color="#947f7e"/><stop offset=".316" id="stop807" stop-color="#cfd0d2"/><stop offset=".717" id="stop809" stop-color="#a6a8ab"/><stop offset=".746" id="stop811" stop-color="#aaacaf"/><stop offset=".869" id="stop813" stop-color="#b5b7b9"/><stop offset="1" id="stop815" stop-color="#b9bbbd"/></linearGradient><path class="st49" d="M2221.8 491.7l-11.9 31.9-34.7 46.3-51.7 27-65 28.4-86.5-10.7-68.2-54.9-35.9-45.9-30.1-22.9 19.4-6.8 51.5-17.5L1945 477l101.1 17.8 9.2-18.5 28.3-30.8s39-22.2 52.7-25.4c13.6-3.2 47.7-3.7 47.7-3.7l37.7 34.1.1 41.2z" id="path818"/><path class="st50" id="polygon820" d="M1893.7 547.3l49 37.7 30.7 20.2 82.2 12.4 80.4-27.2-12.4 6.5-65.1 28.5-86.5-10.7-68.1-55z"/><linearGradient id="SVGID_37_" gradientUnits="userSpaceOnUse" x1="5541.71" y1="-234.65" x2="5649.31" y2="-234.65" gradientTransform="rotate(180 3743.416 135)"><stop offset="0" id="stop822" stop-color="#293942"/><stop offset="1" id="stop824" stop-color="#0f1b21"/></linearGradient><path class="st51" d="M1945.1 476.8s-17.2 8.4-31.6 27.9c-12.4 16.7-19.8 42.6-19.8 42.6l-27.4-34.8-28.8-21.6 32.2-25.6 37.9-3.3 37.5 14.8z" id="path827"/><linearGradient id="SVGID_38_" gradientUnits="userSpaceOnUse" x1="1254.805" y1="-1484.397" x2="1338.545" y2="-1484.397" gradientTransform="scale(1 -1) rotate(-33.32 3292.32 -2156.021)"><stop offset="0" id="stop829" stop-color="#3b2314"/><stop offset="1" id="stop831" stop-color="#754c28"/></linearGradient><path class="st52" id="polygon834" d="M1971.8 476.5l-26.5 19.3-.1 7L2017 524l24.5-22.1V494z"/><linearGradient id="SVGID_39_" gradientUnits="userSpaceOnUse" x1="1245.734" y1="-1446.887" x2="1314.997" y2="-1479.9" gradientTransform="scale(1 -1) rotate(-32.757 3282.582 -2194.194)"><stop offset="0" id="stop836" stop-color="#5b3427"/><stop offset=".164" id="stop838" stop-color="#914625"/><stop offset=".341" id="stop840" stop-color="#c55723"/><stop offset=".474" id="stop842" stop-color="#e56122"/><stop offset=".548" id="stop844" stop-color="#f16522"/><stop offset=".701" id="stop846" stop-color="#f28f3f"/><stop offset=".888" id="stop848" stop-color="#ed693c"/><stop offset="1" id="stop850" stop-color="#e83e39"/></linearGradient><path class="st53" id="polygon853" d="M1971.8 476.5l-26.5 19.3 71.7 20.3 24.5-22.1z"/></g><g id="g892"><g id="neck_tube_3_"><linearGradient id="SVGID_40_" gradientUnits="userSpaceOnUse" x1="5720.134" y1="-118.565" x2="5279.455" y2="-140.381" gradientTransform="rotate(180 3743.416 135)"><stop offset=".264" id="stop856" stop-color="#293942"/><stop offset="1" id="stop858" stop-color="#29373e"/></linearGradient><path class="st54" id="polygon861" d="M1761.1 373.2l15.1 22.3 2.7 11.8 6 11.4 7.1 7.5 2.8 12.3 20.9 14.7 36-1.5 55.9 10.4 22.7 7.2 101.3-15.9 51.8-26 47-21 38.2-6 33.3 5.6 16.9 7.2-13.4-17.6 7.8-27.3-11.1-6.4-9.8-24.9-3.3 16.9-65.7 16.4-255.8 9.6-57.3-6.7z"/><linearGradient id="SVGID_41_" gradientUnits="userSpaceOnUse" x1="5463.511" y1="-133.3" x2="5621.911" y2="-133.3" gradientTransform="rotate(180 3743.416 135)"><stop offset="0" id="stop863" stop-color="#293942"/><stop offset="1" id="stop865" stop-color="#0f1b21"/></linearGradient><path class="st55" id="polygon868" d="M1864.9 397.4l30.3 5.9 53.2 6.5 34.9-1.1 29.1-6.5 10.9-5.4-21.7 1.5-15.5 4.6-43.7-.4-43.3-2.3z"/><linearGradient id="SVGID_42_" gradientUnits="userSpaceOnUse" x1="5354.11" y1="-145.45" x2="5536.31" y2="-145.45" gradientTransform="rotate(180 3743.416 135)"><stop offset="0" id="stop870" stop-color="#293942"/><stop offset="1" id="stop872" stop-color="#162329"/></linearGradient><path class="st56" id="polygon875" d="M2072.8 398.8l-59.4 5.1-43.5 15.1-19.4 13.1 20.6-.5 39.7-10 22.5.4 69.4-6.1 30-12.1z"/><linearGradient id="SVGID_43_" gradientUnits="userSpaceOnUse" x1="5440.911" y1="-179.5" x2="5618.81" y2="-179.5" gradientTransform="rotate(180 3743.416 135)"><stop offset="0" id="stop877" stop-color="#293942"/><stop offset="1" id="stop879" stop-color="#0f1b21"/></linearGradient><path class="st57" id="polygon882" d="M2045.9 446.1l-37.4 2.8-31-1.8-35.5 4.3-74-14.4 26.6 11.8 41.2 13.2 95.8-8.6z"/><linearGradient id="SVGID_44_" gradientUnits="userSpaceOnUse" x1="5618.31" y1="-139.05" x2="5698.31" y2="-139.05" gradientTransform="rotate(180 3743.416 135)"><stop offset="0" id="stop884" stop-color="#293942"/><stop offset="1" id="stop886" stop-color="#0f1b21"/></linearGradient><path class="st58" id="polygon889" d="M1788.5 390.9l53.8 22.3 26.2 14-35.1-11-19.5-8z"/></g></g><g id="space_yeti"><path class="st59" d="M1732-37l130.4-26.7L2033.1-16l108.6 88-15 120.3-89.8 43.4-34.2 87.4-51.1 4.1-111.4-1.1-82.4-14.2-2.9-.5c-36-38.8-67.7-115-67-191 .4-40.8 3.9-73 18.4-106L1732-37z" id="path894"/><linearGradient id="SVGID_45_" gradientUnits="userSpaceOnUse" x1="5686.71" y1="98.9" x2="5712.176" y2="98.9" gradientTransform="rotate(180 3743.416 135)"><stop offset=".339" id="stop896" stop-color="#0d1d24"/><stop offset=".757" id="stop898" stop-color="#322e2f"/></linearGradient><path class="st60" id="polygon901" d="M1800.1 167.4v12.7l-24.9-5.1-.5-12.9z"/><linearGradient id="SVGID_46_" gradientUnits="userSpaceOnUse" x1="314.557" y1="334.882" x2="411.505" y2="334.882" gradientTransform="matrix(1 .00988 .00988 -1 1426.401 241.495)"><stop offset="0" id="stop903" stop-color="#4e5663"/><stop offset=".582" id="stop905" stop-color="#0d1c21"/></linearGradient><path class="st61" d="M1779.9-160.8c.6-11.6-7.4-11.6-14.7-.1-8.1 12.6-16.3 33.3-18.6 44.3-8.7 41.7 7.2 77.3 49 105.9.1 0 .1.1.2.1l.2.2c2.7 1.9 14.9-11.1 27.2-28.9 12.3-17.9 20-33.9 17.3-35.8-.2-.1-.4-.2-.6-.2-30.3-20.7-62-48.1-60-85.5z" id="path908"/><linearGradient id="SVGID_47_" gradientUnits="userSpaceOnUse" x1="5267.335" y1="-126.481" x2="5734.453" y2="-126.481" gradientTransform="matrix(-1 -.00988 .00988 -1 7485.58 301.386)"><stop offset="0" id="stop910" stop-color="#c9a170"/><stop offset=".095" id="stop912" stop-color="#b2675c"/><stop offset=".356" id="stop914" stop-color="#273d44"/><stop offset=".469" id="stop916" stop-color="#3a484e"/><stop offset=".623" id="stop918" stop-color="#4d5458"/><stop offset=".782" id="stop920" stop-color="#585b5e"/><stop offset=".951" id="stop922" stop-color="#5c5d60"/></linearGradient><path class="st62" d="M2217.2 352.9l-.2 18.5c-.1 15.1-104.8 26.2-233.8 25s-233.4-14.5-233.3-29.6l.2-18.5 467.1 4.6z" id="path925"/><linearGradient id="SVGID_48_" gradientUnits="userSpaceOnUse" x1="5749.917" y1="-103.486" x2="5260.591" y2="-103.486" gradientTransform="matrix(-1 -.00988 .00988 -1 7485.58 301.386)"><stop offset="0" id="stop927" stop-color="#929592"/><stop offset=".389" id="stop929" stop-color="#7b797a"/><stop offset="1" id="stop931" stop-color="#273d44"/></linearGradient><path class="st63" d="M1750.1 348.2c-.1 15.1 104.3 28.3 233.3 29.6 129 1.3 233.7-9.9 233.8-25s-104.3-28.3-233.3-29.6c-128.9-1.2-233.6 10-233.8 25z" id="path934"/><linearGradient id="SVGID_49_" gradientUnits="userSpaceOnUse" x1="5648.995" y1="124.384" x2="5771.452" y2="102.516" gradientTransform="matrix(-1 -.00988 .00988 -1 7485.58 301.386)"><stop offset="0" id="stop936" stop-color="#0f1b21"/><stop offset="1" id="stop938" stop-color="#293942"/></linearGradient><path class="st64" id="polygon941" d="M1754.5 311.2l-7.6-77 65.5-49.8-3.1-61.8.1-9.9-52.9-41.3-30.4-32.6-15.9-27.3-2.6-6 4-16.4 32.9-44.3 87.8-76.2 134.9-33.2 116 53L2223.1 5.3l-5.4 137.6-68.9 141.9-113 67-117.4 9z"/><linearGradient id="SVGID_50_" gradientUnits="userSpaceOnUse" x1="5273.585" y1="-96.486" x2="5715.61" y2="-96.486" gradientTransform="matrix(-1 -.00988 .00988 -1 7485.58 301.386)"><stop offset="0" id="stop943" stop-color="#f2c086"/><stop offset=".091" id="stop945" stop-color="#d37a6d"/><stop offset=".316" id="stop947" stop-color="#cfd0d2"/><stop offset=".96" id="stop949" stop-color="#a6a8ab"/><stop offset=".964" id="stop951" stop-color="#b5ada3"/><stop offset=".972" id="stop953" stop-color="#d0b596"/><stop offset=".981" id="stop955" stop-color="#e3bb8d"/><stop offset=".99" id="stop957" stop-color="#eebf87"/><stop offset="1" id="stop959" stop-color="#f2c085"/></linearGradient><path class="st65" d="M2204.6 321.6l-.3 27.2c-.1 11.6-98.1 20-218.9 18.8s-218.6-11.5-218.5-23.1l.3-27.2 37.8 5.9 36.6 4.3 363-5.9z" id="path962"/><path class="st66" d="M2096.2 299.7c66 5.1 108.4 12.3 108.3 19.9-.1 7.6-42.5 13.9-108.3 17.4v-37.3z" id="path964"/><linearGradient id="SVGID_51_" gradientUnits="userSpaceOnUse" x1="5265.811" y1="-33.788" x2="5715.572" y2="-33.788" gradientTransform="matrix(-1 -.00988 .00988 -1 7485.58 301.386)"><stop offset="0" id="stop966" stop-color="#f2c086"/><stop offset=".091" id="stop968" stop-color="#c68269"/><stop offset=".316" id="stop970" stop-color="#cfd0d2"/><stop offset=".967" id="stop972" stop-color="#a6a8ab"/></linearGradient><path class="st67" d="M1843.8 338.2l159.7-8.6 14.7-38.1 22.3-58.1 44.1-21.6 50-18.7 78.3 56-17.3 26.3s-28.5 29.3-39 39.1l-28.5 7.1-24.4 5.7-5.6 9.5c77.8-3.9 106.4-11.9 106.5-17.3l-.3 29.1c-.1 11.6-98.1 22.6-218.9 21.4s-218.6-10.4-218.5-22l.3-30.9c0 1.1 75.9 20.1 76.6 21.1z" id="path975"/><linearGradient id="SVGID_52_" gradientUnits="userSpaceOnUse" x1="5251.304" y1="400.531" x2="5471.822" y2="242.71" gradientTransform="matrix(-1 -.00988 .00988 -1 7485.58 301.386)"><stop offset="0" id="stop977" stop-color="#f2c086"/><stop offset=".081" id="stop979" stop-color="#f3a98c"/><stop offset=".184" id="stop981" stop-color="#a79189"/><stop offset=".668" id="stop983" stop-color="#bdbfc1"/><stop offset=".846" id="stop985" stop-color="#ccd1d0"/><stop offset="1" id="stop987" stop-color="#a6a8ab"/></linearGradient><path class="st68" d="M2159 52.2L1898.1-93.5l-110.7-4.1c24.6-56.7 104.5-88.8 195-83.9 153.1 8.4 278.4 140 276.9 293.3-.3 31-100.3-59.6-100.3-59.6z" id="path990"/><linearGradient id="SVGID_53_" gradientUnits="userSpaceOnUse" x1="5228.584" y1="338.416" x2="5332.69" y2="338.416" gradientTransform="matrix(-1 -.00988 .00988 -1 7485.58 301.386)"><stop offset="0" id="stop992" stop-color="#6c6f71"/><stop offset=".427" id="stop994" stop-color="#4e5663"/><stop offset="1" id="stop996" stop-color="#0d1c21"/></linearGradient><path class="st69" d="M2224.1-165.2c.3-10.3 7.7-11.6 15.6.2 9.3 13.9 16.5 35.6 18.7 47.3 8.3 44.3-9.2 81.6-54 111.1-.1 0-2.1 1.4-2.2 1.5-2.9 1.9-18.3-11.1-30.9-30.2-12.6-19.2-17.4-37.1-14.4-39 .2-.1 1.8-1.5 2-1.5 32.3-21.5 64.1-49.6 65.2-89.4z" id="path999"/><linearGradient id="SVGID_54_" gradientUnits="userSpaceOnUse" x1="5279.502" y1="-46.848" x2="5381.227" y2="-46.848" gradientTransform="matrix(-1 -.00988 .00988 -1 7485.58 301.386)"><stop offset=".416" id="stop1001" stop-color="#4e5663"/><stop offset=".668" id="stop1003" stop-color="#273d44"/><stop offset="1" id="stop1005" stop-color="#273d44"/></linearGradient><path class="st70" d="M2206.1 260s-8.3 48.1-9.2 53.4-1 5.1-4.2 6.5c-3.9 1.6-13.2 3.3-22.7 4.7-18.8 2.8-66.3 6.5-66.3 6.5v-3.7s41.2-11.7 59-23.3c24.9-16.3 43.4-44.1 43.4-44.1z" id="path1008"/><linearGradient id="SVGID_55_" gradientUnits="userSpaceOnUse" x1="5699.071" y1="295.018" x2="5563.533" y2="75.672" gradientTransform="rotate(180 3743.416 135)"><stop offset="0" id="stop1010" stop-color="#273d44"/><stop offset=".205" id="stop1012" stop-color="#be918a"/><stop offset=".373" id="stop1014" stop-color="#c7c9cb"/><stop offset=".687" id="stop1016" stop-color="#ccd1d0"/></linearGradient><path class="st71" d="M1823.2 2l-27.1-8.2-33.9 10.9 25.2 19.3-31.4 5.8-15.2 17.9 25.5 11.4 9.4 11.4s14.1 75.2 15.5 116.3-3.2 133.9-3.2 133.9l49.7 7.7h108.9l50.8-5.8 32.9-97.8 36.5-17.5s12.1-81.3 11.3-91.7-15.5-41.3-18.1-45.3c-3.2-4.8-27.1-22.7-27.1-22.7s-44.3-27.1-59.9-33.3-27.7-7.4-27.7-7.4l-106.4-30.5L1823.2 2z" id="path1019"/><radialGradient id="SVGID_56_" cx="5561.656" cy="113.696" r="184.971" gradientTransform="matrix(-1 -.00988 .00988 -1 7485.58 301.386)" gradientUnits="userSpaceOnUse"><stop offset="0" id="stop1021" stop-color="#0f1b21" stop-opacity="0"/><stop offset=".676" id="stop1023" stop-color="#0f1b21" stop-opacity=".651"/><stop offset=".758" id="stop1025" stop-color="#19272e" stop-opacity=".74"/><stop offset=".886" id="stop1027" stop-color="#24343b" stop-opacity=".878"/><stop offset="1" id="stop1029" stop-color="#283840"/></radialGradient><path class="st72" d="M2065.6 217.2s14-91.3 12.6-101.6-14.5-39.9-18.1-45.3c-3.6-5.4-27.1-22.7-27.1-22.7s-45.6-27.4-59.9-33.3-62.8-16.7-62.8-16.7l-67.9-3.2-19.2 7.6s-19.9-3.1-28.6-3.1-32.4 5.9-32.4 5.9l25.2 19.3-31.4 5.8-15.2 17.9 25.5 11.4 9.4 11.4 3.1 18.2-22.3-17.4-30.5-32.6-15.9-27.3-1.7-3.9 14.9-36.3 54.4-28.2 61.8-6.2 37.7 1.7 33.5 2.6 55 16.8 162.9 65 6 47.2-14.3 124.1-54.7 22.9z" id="path1032"/><g class="st2" id="g1036"><path class="st73" id="polygon1034" d="M1879.5 293.4l-7.2 6.2-9.7-15.7-.7 1 9.3 22.4 8.9-4.8 11.2 9.8 20.1-8.8 5.3 6.8 20.5-29.1-17.7 15.7-6.1-4.6-21.2 10.5z"/></g><linearGradient id="SVGID_57_" gradientUnits="userSpaceOnUse" x1="5474.672" y1="485.233" x2="5622.217" y2="379.637" gradientTransform="matrix(-1 -.00988 .00988 -1 7485.58 301.386)"><stop offset="0" id="stop1038" stop-color="#f2c086"/><stop offset="1" id="stop1040" stop-color="#f1f1f2"/></linearGradient><path class="st74" d="M1936.5-175.2l-51.8 12.7-31.8 18.1-45.3 47.5-20.2-.7c24.6-56.7 104.5-88.8 195-83.9 2.4.1 4.8.3 7.2.5l-53.1 5.8z" id="path1043"/><g class="st5" id="g1056"><path class="st75" d="M1834.3 204.4c-6.1 0-11.7 1.1-15.9 2.8-.2 0-.5.1-.7.1-6-5.1-10-14.6-10-25.6 0-16.3 9-29.5 20-29.5s20 13.2 20 29.5c0 9.3-2.9 17.6-7.5 23-1.9-.1-3.9-.3-5.9-.3z" id="path1045"/><linearGradient id="SVGID_58_" gradientUnits="userSpaceOnUse" x1="5643.411" y1="89.4" x2="5665.371" y2="89.4" gradientTransform="rotate(180 3743.416 135)"><stop offset="0" id="stop1047" stop-color="#293942"/><stop offset="1" id="stop1049" stop-color="#0f1b21"/></linearGradient><ellipse class="st76" cx="1832.4" cy="180.6" rx="11" ry="18" id="ellipse1052"/><ellipse class="st75" cx="1836.5" cy="167.4" rx="4.1" ry="6.8" id="ellipse1054"/></g><g class="st2" id="g1069"><path class="st75" d="M1952.3 208c-3.5 0-6.8.2-10 .6-5.3-6.7-8.6-16.2-8.6-26.8 0-20.1 11.8-36.4 26.4-36.4s26.4 16.3 26.4 36.4c0 12.4-4.5 23.3-11.3 29.8-6.3-2.3-14.2-3.6-22.9-3.6z" id="path1058"/><linearGradient id="SVGID_59_" gradientUnits="userSpaceOnUse" x1="5504.378" y1="89.3" x2="5532.915" y2="89.3" gradientTransform="rotate(180 3743.416 135)"><stop offset="0" id="stop1060" stop-color="#293942"/><stop offset="1" id="stop1062" stop-color="#0f1b21"/></linearGradient><ellipse class="st77" cx="1968.2" cy="180.7" rx="14.3" ry="21" id="ellipse1065"/><ellipse class="st75" cx="1974.7" cy="165.7" rx="5.3" ry="7.9" id="ellipse1067"/></g><path class="st73" d="M1956.4 116.1c-10.3 1.4-19.4 5.3-26.3 10.6 3.4-11.3 12.7-20.1 24.7-21.7 12-1.7 23.4 4.2 29.7 14.1-8-3.2-17.8-4.5-28.1-3z" id="path1071"/><linearGradient id="SVGID_60_" gradientUnits="userSpaceOnUse" x1="5639.411" y1="140.925" x2="5683.31" y2="140.925" gradientTransform="rotate(180 3743.416 135)"><stop offset="0" id="stop1073" stop-color="#a0a2a4"/><stop offset="1" id="stop1075" stop-color="#9d867b"/></linearGradient><path class="st78" d="M1827.1 128.7c-8.3-2.2-16.5-1.7-23.6.8 6.6-9.2 16.8-14.1 26.5-11.6s16.2 11.8 17.4 23c-5-5.7-12-10.1-20.3-12.2z" id="path1078"/><path class="st79" d="M1925.8 262.2c1.5-.5-22.9 0-61.3-7.2 0 0 .3-3.1-.1-6.5-.2-2.1-.7-4.2-1.7-6 0 0-3.4 12.8-6.8 15.2 0 0 7.3 7.2 26 10.4 0 0-10.2-4.5-14.4-7.7.1.1 42.3 7.6 58.3 1.8z" id="path1080"/><path class="st80" d="M1813.7 322.6l-11.6-1.8-14-2.7s1.9-33.2 2.8-73.9c.4 3 .8 6 1.3 8.9 4.8 31.5 11.6 57.7 21.5 69.5z" id="path1082"/><radialGradient id="SVGID_61_" cx="5534.935" cy="82.681" r="156.298" gradientTransform="matrix(-1 0 0 -1.4143 7486.832 304.248)" gradientUnits="userSpaceOnUse"><stop offset="0" id="stop1084" stop-color="#e6e7e8"/><stop offset=".17" id="stop1086" stop-color="#e3e4e5"/><stop offset=".316" id="stop1088" stop-color="#d8dbdc"/><stop offset=".454" id="stop1090" stop-color="#c6cbcd"/><stop offset=".586" id="stop1092" stop-color="#adb5b7"/><stop offset=".714" id="stop1094" stop-color="#8d989c"/><stop offset=".84" id="stop1096" stop-color="#66757a"/><stop offset=".961" id="stop1098" stop-color="#384c52"/><stop offset="1" id="stop1100" stop-color="#273d44"/></radialGradient><path class="st81" d="M2013 239.6l17.2-40.6 10.3-47.4 4.1-42.7-12.5-34.2-12.2-18-22.3-17.4-22.3-14.9-30-17.3s3.9.5 8.8 1.7c3 .7 6.5 1.9 9.4 2.7 9 2.5 16.6 6.3 16.6 6.3l15.5 8.3 37.4 21.7s24.9 18.6 27.1 22.7 16.8 32.8 18.1 45.3-11.3 91.7-11.3 91.7l-36.5 17.5-32.3 95.9-32.7 4.7-27.3 1.1 39.5-23.3 35.4-63.8z" id="path1103"/><path class="st80" id="polygon1105" d="M1869.9 15.2L1845 28.4l-33.9 26.4 2.2-29 5-22.9 5.5-7 50 13.6 5.7 2.7z"/><g id="g1118"><linearGradient id="SVGID_62_" gradientUnits="userSpaceOnUse" x1="5689.386" y1="245.274" x2="5569.073" y2="222.512" gradientTransform="matrix(-1 -.00988 .00988 -1 7485.58 301.386)"><stop offset="0" id="stop1107" stop-color="#f2c086"/><stop offset=".081" id="stop1109" stop-color="#f3a98c"/><stop offset=".184" id="stop1111" stop-color="#df9283"/><stop offset=".466" id="stop1113" stop-color="#cfd0d2"/></linearGradient><path class="st82" d="M1867.4 13.2s-18.3 4.2-27.7 9.3-28 22.7-28 22.7 1.7-28.5 3.7-34.2c2.4-6.8 5.7-18.1 14.3-27.8 3.2-3.6 15.4-15 15.4-15s37 6.1 44.8 7.2c12.5 1.7 55.5 31.7 55.5 31.7" id="path1116"/></g><g class="st5" id="g1142"><linearGradient id="SVGID_63_" gradientUnits="userSpaceOnUse" x1="5692.83" y1="78.702" x2="5421.818" y2="78.702" gradientTransform="rotate(180 3743.416 135)"><stop offset="0" id="stop1120" stop-color="#e6968b"/><stop offset=".466" id="stop1122" stop-color="#a4a7a9"/><stop offset=".709" id="stop1124" stop-color="#a8acad"/><stop offset=".976" id="stop1126" stop-color="#293942"/></linearGradient><path class="st83" d="M1855.3 171.7s3.9 1.2 6.3 3.4l6.6 4.2 12.7-3.6c1.1-.3 2.3-.5 3.6-.5 6.2 0 14.3 4.6 14.3 4.6l4.5 26.1s2.4 8.7 6.8 13.7 12.1 6.8 12.1 6.8l37 5.2s18.4-.5 28.1-1.5 19.3-5.4 21.2-11.2 9.1-34.4 9.1-34.4l1.9-12.5 5.6.3 45.7 8.4 2.2-13.2-34.7-6.9s-40-6.8-63.3-8.7c-60.7-4.9-77.2 11.7-77.2 11.7s-6.6-1-12.8-1-13.4 2.4-13.4 2.4-20.8-6.9-30.8-7.8c-10-1-28.9-.2-28.9-.2l-16.5 2.8-5.9 1.3 1.1 12.4c7-4.4 23.8-7 23.8-7s15.1-.2 24.4 1.2c9.3 1.3 16.5 4 16.5 4zm54.9 0c.8-2 12.3-4.4 12.3-4.4s25.8-6.1 44.5-5.6 34.7 6 34.7 6 5.1 2.3 5.1 7.6c.1 5.3-8.1 34-9.1 37.3-1.5 4.8-9.8 6.6-9.8 6.6l-27.6 1.7s-35.3-3.6-40.2-7c-4.9-3.4-6.8-12.6-7.6-19.6-.9-6.9-3.2-20.6-2.3-22.6z" id="path1129"/><linearGradient id="SVGID_64_" gradientUnits="userSpaceOnUse" x1="5702.421" y1="43.454" x2="5591.994" y2="77.942" gradientTransform="rotate(180 3743.416 135)"><stop offset="0" id="stop1131" stop-color="#e6968b"/><stop offset=".466" id="stop1133" stop-color="#a4a7a9"/><stop offset=".709" id="stop1135" stop-color="#a8acad"/><stop offset=".976" id="stop1137" stop-color="#293942"/></linearGradient><path class="st84" d="M1791.5 206.3c1 1.3 9 4.5 10.1 5.1 9.2 5.5 41.1 9.4 50.6.2.1-.1 8.7-6.9 8.8-7.1l-5.3 17.8c-4.1.9-15.8 2.7-15.8 2.7s-11.5 1-17.5.6c-4.8-.3-25-4.7-31.1-6.9l.2-12.4z" id="path1140"/></g><linearGradient id="SVGID_65_" gradientUnits="userSpaceOnUse" x1="5417.875" y1="142.412" x2="5722.146" y2="142.412" gradientTransform="scale(-1) rotate(-1.411 -11506.183 304159.472)"><stop offset=".339" id="stop1144" stop-color="#0d1d24"/><stop offset=".757" id="stop1146" stop-color="#322e2f"/></linearGradient><path class="st85" d="M1769.3 160c-1.4 1.8 2.2 9.2 2.2 9.2l4.6 6.4s4.6 19.1 6.2 23.1 5.2 11.3 9 14.4c2.6 2.1 20.4 6.6 26.5 7s17.5-.6 17.5-.6 14.1-1.4 18.8-5.4c4.6-4.1 6-7.2 7.9-11.7s7.3-28.7 7.3-28.7 4.4-3.9 10.6-3.9 14.3 4.6 14.3 4.6l6.7 26.5s1.1 9.3 5.5 14.3 7.1 5.5 13.5 7.4 20.7 3.6 32.2 3.6 20.5-.9 28.1-1.5 19.7-5.3 22.7-16.2c1.6-5.9 6.4-18.7 7.6-29.3.7-6.6 1.9-12.5 1.9-12.5l5.6.3 53.7 9.5 1.7-12.8s-27.2-5.6-38.4-7.2c-13.6-2-22.5-3.8-30.5-5.2-12.1-2.2-22.1-5.2-36.2-6.3-60.7-4.9-73 13.8-73 13.8s-10.2-2.2-16.4-2.2-12.1 3.1-12.1 3.1-14.9-6.8-24.8-8.3c-12.8-2-24.4-2-36.2-1.1-11.8.9-29.1 6.4-29.1 6.4s-6 1.5-7.4 3.3zm136.2 6.4c.9-2 8.5-5.3 13.3-6.4 4.8-1.1 22.2-4.2 40.9-3.6s34.7 6 34.7 6 4.1 1.5 3.9 6.9c-.5 11.7-5.7 31.5-6.8 34.7-3.2 9.1-14 10.1-14 10.1l-24.5 1.5s-30.1.1-36.1-4.2c-4.8-3.4-6.6-15.5-8.4-22.7-1.8-7-4.5-19.2-3-22.3zm-119.8 10.9c-1.3-5.9-2.7-8.9 2.7-11.6 5.1-2.6 12.9-4.2 21.8-5 8.1-.7 14.6-.8 23.9.6 9.4 1.3 16.4 5 16.4 5s7.7 2.5 8.3 6.5c.6 4.1-5.1 27.3-11.3 33.3-9.5 9.2-41.4 5.3-50.6-.2-6.6-4-9.4-20.3-11.2-28.6z" id="path1149"/><path class="st59" d="M1732-37l130.4-26.7L2033.1-16l108.6 88-15 120.3-89.8 43.4-34.2 87.4-51.1 4.1-111.4-1.1-82.4-14.2-2.9-.5c-36-38.8-67.7-115-67-191 .4-40.8 3.9-73 18.4-106L1732-37z" id="path1151"/><linearGradient id="SVGID_66_" gradientUnits="userSpaceOnUse" x1="5742.145" y1="-13.841" x2="5354.809" y2="-20.505" gradientTransform="matrix(-1 -.00988 .00988 -1 7485.58 301.386)"><stop offset=".381" id="stop1153" stop-color="#293942"/><stop offset="1" id="stop1155" stop-color="#1f2c32"/></linearGradient><path class="st86" d="M2118.7 182.5l-88.3 42.3-32.3 95.9s-34 4.2-60 5.9c-26 1.7-73.8.4-99.8-1.1s-83.6-14.4-83.6-14.4l12.9 21.2s44.2 11.6 72.7 13.8c28.6 2.2 76 4 111.2 2 35.2-1.9 68.5-4.2 68.5-4.2l32.7-106.3 96.5-45.3-30.5-9.8z" id="path1158"/><linearGradient id="SVGID_67_" gradientUnits="userSpaceOnUse" x1="5289.868" y1="-74.609" x2="5436.763" y2="-74.609" gradientTransform="matrix(-.9619 -.09227 .09728 -1.0142 7350.144 556.044)"><stop offset=".264" id="stop1160" stop-color="#455a65"/><stop offset="1" id="stop1162" stop-color="#19262c"/></linearGradient><path class="st87" d="M2196.9 19.7c5 .2 18.6 1.2 18.6 1.2l12.2 16.4c19.9 21.9 31 62.6 26.7 107.8-4.1 43-21.2 79.3-43.2 98l-6.7 8.2s-26.7 3.9-31.7 3.5c-38.2-3.7-62.5-57.8-59.5-123.2 3-65.8 45.3-113.2 83.6-111.9z" id="path1165"/><linearGradient id="SVGID_68_" gradientUnits="userSpaceOnUse" x1="5422.39" y1="13.715" x2="5583.445" y2="-101.668" gradientTransform="matrix(-.8946 -.07587 .08664 -.9962 7145.888 501.821)"><stop offset="0" id="stop1167" stop-color="#f2c086"/><stop offset=".072" id="stop1169" stop-color="#f2c085"/><stop offset=".146" id="stop1171" stop-color="#e2b39b"/><stop offset=".202" id="stop1173" stop-color="#daaca6"/><stop offset=".223" id="stop1175" stop-color="#d9aea8"/><stop offset=".508" id="stop1177" stop-color="#d2c7c7"/><stop offset=".668" id="stop1179" stop-color="#cfd0d2"/><stop offset=".726" id="stop1181" stop-color="#c4c7c9"/><stop offset=".828" id="stop1183" stop-color="#a7aeb2"/><stop offset=".961" id="stop1185" stop-color="#78858d"/><stop offset=".997" id="stop1187" stop-color="#6a7982"/></linearGradient><path class="st88" d="M2142.7 130.2c-6.1 63.7 17.6 118 53 121.4 35.4 3.4 69-45.5 75.1-109.1s-17.6-118-53-121.4c-35.3-3.4-69 45.5-75.1 109.1z" id="path1190"/><linearGradient id="SVGID_69_" gradientUnits="userSpaceOnUse" x1="5309.004" y1="133.607" x2="5235.579" y2="122.369" gradientTransform="rotate(180 3743.416 135)"><stop offset="0" id="stop1192" stop-color="#4d6370"/><stop offset="1" id="stop1194" stop-color="#212e34"/></linearGradient><path class="st89" d="M2224.2 86.3l-1.2 12.3c15.2 1.5 25.7 22.4 23.4 46.7s-16.6 42.9-31.8 41.4l-1.2 12.3c-19.5-1.9-32.9-28.6-29.9-59.8s21.2-54.8 40.7-52.9z" id="path1197"/><linearGradient id="SVGID_70_" gradientUnits="userSpaceOnUse" x1="5725.73" y1="290.525" x2="5279.543" y2="290.525" gradientTransform="matrix(-1.0216 -.0101 .00988 -.9999 7556.438 302.06)"><stop offset="0" id="stop1199" stop-color="#5b3528"/><stop offset="1" id="stop1201" stop-color="#19262c"/></linearGradient><path class="st90" d="M1881.6-155.7c140.7-13.9 250.9 76.3 291.1 182.4-14.5 5.9-26.6 43.7-26.6 43.7l-11.4.4s-3.4-.3-3.4-.4c-68.2-73-162.9-120.8-294-122.1-30.2-.3-76.7 6.4-110.5 25.6l-.1.1-7.8 14.6-8 14.8-2.1 4.4s-8.3-12.6-4.4-24.3c21.4-57.7 85.5-130.2 177.2-139.2z" id="path1204"/><linearGradient id="SVGID_71_" gradientUnits="userSpaceOnUse" x1="5344.226" y1="121.982" x2="5643.787" y2="387.679" gradientTransform="matrix(-1.0216 -.0101 .00988 -.9999 7556.438 302.06)"><stop offset="0" id="stop1206" stop-color="#273d44"/><stop offset=".487" id="stop1208" stop-color="#f16522"/><stop offset=".668" id="stop1210" stop-color="#f28f3f"/><stop offset=".888" id="stop1212" stop-color="#ed693c"/><stop offset="1" id="stop1214" stop-color="#e83e39"/></linearGradient><path class="st91" d="M1881.7-163.5c140.7-13.9 261.2 83.1 301.4 189.1-16.2 9.6-26.7 24.8-37 44.9-68.8-77-170.9-130-306.4-131.3-21.8-.2-53.5 3.9-82.2 13.4-12.4 4.1-24.2 9.3-34.5 15.5-8.7 5.3-20.3 17.2-19.2 27.8-5-11.9 3.8-25.1 8.2-33.4 28.9-54.3 90.1-118.2 169.7-126z" id="path1217"/><linearGradient id="SVGID_72_" gradientUnits="userSpaceOnUse" x1="5599.816" y1="329.326" x2="5785.608" y2="329.326" gradientTransform="matrix(-1 -.00988 .00988 -1 7485.58 301.386)"><stop offset=".057" id="stop1219" stop-color="#f16522"/><stop offset="1" id="stop1221" stop-color="#f3ddbd"/></linearGradient><path class="st92" d="M1711.9-37.5c28.2-54.3 88.1-118.2 166-126 4-.4 8-.7 11.9-.9 0 0-65.2 21.5-104.1 56.7-38.5 34.8-53.8 70.7-53.8 70.7-3.2 1.6-6.2 3.3-9.1 5.2-8.5 5.3-19.9 17.2-18.8 27.8-5-12 3.6-25.2 7.9-33.5z" id="path1224"/><path class="st93" d="M1709.5 6.1l17-32.1 7.8-4.3 10.4-4.6-20.4 41.1c-14.6 33.4-21.4 69.4-21.8 110.8-.8 77 31.4 154.2 67.9 193.5l4 4.8-15.6-3.2-4.3-1c-36.5-39.3-67.6-117.3-66.9-194.2.5-41.4 7.3-77.4 21.9-110.8z" id="path1226"/></g><g id="g1247"><linearGradient id="SVGID_73_" gradientUnits="userSpaceOnUse" x1="5265.573" y1="-244.96" x2="5372.018" y2="-186.844" gradientTransform="rotate(180 3743.416 135)"><stop offset="0" id="stop1229" stop-color="#f3a98c"/><stop offset=".86" id="stop1231" stop-color="#929497"/><stop offset="1" id="stop1233" stop-color="#6e7482"/></linearGradient><path class="st94" d="M2200.7 521.1c7.9-9.4 12.9-16.6 15.6-30.6 2.7-14 5.9-27.7 1.9-40.2s-5.5-15.7-12.8-22-11-8.7-20.6-10.7-17.2-1.7-27.5 1.7c-12.5 4.1-22.2 16.2-29.9 28.6-7.6 12.5-12.3 20.3-15.5 41.2-3.2 20.9 3.1 37.1 7.9 44.9 4.8 7.8 11.6 13.9 22.7 15.3 13.1 1.6 23.2-2.1 31.9-6.5 8.6-4.4 18.4-12.4 26.3-21.7z" id="path1236"/><linearGradient id="SVGID_74_" gradientUnits="userSpaceOnUse" x1="5258.961" y1="-244.966" x2="5365.406" y2="-186.85" gradientTransform="rotate(180 3743.416 135)"><stop offset="0" id="stop1238" stop-color="#e8cfbe"/><stop offset=".668" id="stop1240" stop-color="#d0d2d3"/><stop offset=".997" id="stop1242" stop-color="#beb0ad"/></linearGradient><path class="st95" d="M2207.3 521.1c7.9-9.4 12.9-16.6 15.6-30.6s5.9-27.7 1.9-40.2-5.5-15.7-12.8-22-11-8.7-20.6-10.7c-9.7-2-17.2-1.7-27.5 1.7-12.5 4.1-22.2 16.2-29.9 28.6-7.6 12.5-12.3 20.3-15.5 41.2-3.2 20.9 3.1 37.1 7.9 44.9 4.8 7.8 11.6 13.9 22.7 15.3 13.1 1.6 23.2-2.1 31.9-6.5s18.4-12.4 26.3-21.7z" id="path1245"/></g><g id="g1258"><linearGradient id="SVGID_75_" gradientUnits="userSpaceOnUse" x1="2171.836" y1="-140.884" x2="2230.399" y2="-140.884" gradientTransform="matrix(1.0102 -.05115 -.1058 -1.0536 -61.489 447.782)"><stop offset="0" id="stop1249" stop-color="#4f5764"/><stop offset=".668" id="stop1251" stop-color="#293942"/><stop offset="1" id="stop1253" stop-color="#0f1c20"/></linearGradient><path class="st96" d="M2157.1 473.8c9.8-18.9 24.6-30.3 38.4-23.5 5.8 2.9 8.8 8 9.5 13.9l-8.2 6.7c-.7-4.8-2.2-8.3-6.6-10.5-7.9-3.8-17.7 4-23.7 15.4-.3.4-.7 1.2-.9 1.9 4.5-3.2 11.9-5.8 17.4-3 8.4 4.2 12 15.1 4.7 29-6.5 12-18.3 18.6-28.7 13.5-14.1-6.9-11.5-25.2-1.9-43.4zm21.7 26.3c4.3-8 1.6-14.1-3.4-16.5-4-1.9-9.4-1-14.1 2.6-3.4 7.2-4.9 16.9 2.3 20.5 5.9 3.2 12.4-1.4 15.2-6.6z" id="path1256"/></g></g><linearGradient id="SVGID_76_" gradientUnits="userSpaceOnUse" x1="5362.803" y1="420.503" x2="5621.447" y2="-319.154" gradientTransform="rotate(180 3743.416 135)"><stop offset="0" id="stop1262" stop-color="#4e5663"/><stop offset=".668" id="stop1264" stop-color="#283841"/><stop offset="1" id="stop1266" stop-color="#0f1b21"/></linearGradient></g></g></g></svg>